<?xml version="1.0" standalone="no"?>
<!DOCTYPE svg PUBLIC "-//W3C//DTD SVG 1.1//EN" "http://www.w3.org/Graphics/SVG/1.1/DTD/svg11.dtd" >
<svg xmlns="http://www.w3.org/2000/svg">
<metadata>
Created by FontForge 20120731 at Thu Aug  4 09:05:11 2016
 By admin
</metadata>
<defs>
<font id="iconfont" horiz-adv-x="1024" >
  <font-face 
    font-family="iconfont"
    font-weight="500"
    font-stretch="normal"
    units-per-em="1024"
    panose-1="2 0 6 3 0 0 0 0 0 0"
    ascent="896"
    descent="-128"
    x-height="792"
    bbox="0 -212 1132 896"
    underline-thickness="50"
    underline-position="-100"
    unicode-range="U+0078-E672"
  />
<missing-glyph horiz-adv-x="374" 
d="M34 0v682h272v-682h-272zM68 34h204v614h-204v-614z" />
    <glyph glyph-name=".notdef" horiz-adv-x="374" 
d="M34 0v682h272v-682h-272zM68 34h204v614h-204v-614z" />
    <glyph glyph-name=".null" horiz-adv-x="0" 
 />
    <glyph glyph-name="nonmarkingreturn" horiz-adv-x="341" 
 />
    <glyph glyph-name="x" unicode="x" horiz-adv-x="1001" 
d="M281 543q-27 -1 -53 -1h-83q-18 0 -36.5 -6t-32.5 -18.5t-23 -32t-9 -45.5v-76h912v41q0 16 -0.5 30t-0.5 18q0 13 -5 29t-17 29.5t-31.5 22.5t-49.5 9h-133v-97h-438v97zM955 310v-52q0 -23 0.5 -52t0.5 -58t-10.5 -47.5t-26 -30t-33 -16t-31.5 -4.5q-14 -1 -29.5 -0.5
t-29.5 0.5h-32l-45 128h-439l-44 -128h-29h-34q-20 0 -45 1q-25 0 -41 9.5t-25.5 23t-13.5 29.5t-4 30v167h911zM163 247q-12 0 -21 -8.5t-9 -21.5t9 -21.5t21 -8.5q13 0 22 8.5t9 21.5t-9 21.5t-22 8.5zM316 123q-8 -26 -14 -48q-5 -19 -10.5 -37t-7.5 -25t-3 -15t1 -14.5
t9.5 -10.5t21.5 -4h37h67h81h80h64h36q23 0 34 12t2 38q-5 13 -9.5 30.5t-9.5 34.5q-5 19 -11 39h-368zM336 498v228q0 11 2.5 23t10 21.5t20.5 15.5t34 6h188q31 0 51.5 -14.5t20.5 -52.5v-227h-327z" />
    <glyph glyph-name="uniE600" unicode="&#xe600;" 
d="M671 708q-6 2 -17.5 6t-46 11.5t-68.5 8.5t-81 -8t-88.5 -31.5t-85.5 -69t-76 -112.5q-24 -55 -29.5 -108.5t4 -96t28 -81.5t41 -67t45 -50t39 -33.5t24.5 -14.5q11 -3 48.5 11t83.5 43.5t83 75.5t47 106t-25 135q-2 -11 -7 -31q-7 -32 -11.5 -48t-14 -43t-20 -42.5
t-29 -37t-41.5 -36t-56.5 -30.5t-75.5 -29q-3 3 -8.5 9.5t-20 28t-26 44t-22.5 56.5t-15 67.5t2 75t24.5 81.5t56 84.5t91.5 85.5q8 4 21.5 5.5t23.5 2.5h10q-7 -5 -17.5 -15t-34 -40.5t-37 -63t-14 -79.5t23.5 -92q1 4 4.5 22.5t7 34t13 41t21 47t32.5 48t46.5 48.5
t63.5 43.5t83 37.5zM404 45q6 -2 17.5 -6t46 -11.5t68.5 -8.5t81 8t88.5 31t85.5 69t77 113q23 55 28.5 108.5t-4 96t-27.5 81.5t-40.5 67t-45.5 50t-39.5 33.5t-24.5 14.5q-11 3 -48.5 -11t-83.5 -43.5t-83 -75.5t-47 -106t25 -135q2 11 7 31l12 48q4 16 14 43t20 42
t28.5 37t41.5 36.5t56.5 30.5t75.5 29q4 -4 9 -10t19.5 -27.5t26 -44t23 -56.5t15 -67.5t-2.5 -75t-24 -81.5t-55.5 -84.5t-92.5 -85.5q-7 -4 -21 -6t-24 -2h-10q7 5 17.5 14.5t34 40.5t37 63.5t14 79.5t-23.5 92q0 -4 -4 -22.5t-7.5 -34t-13 -41t-21 -47t-32.5 -48
t-46.5 -48.5t-63.5 -43.5t-83 -37.5z" />
    <glyph glyph-name="uniE601" unicode="&#xe601;" 
d="M869 633h-720q-35 0 -59 -24.5t-24 -59.5v-498q0 -35 24 -59.5t59 -24.5h720q35 0 59 24.5t24 59.5v498q0 35 -24 59.5t-59 24.5zM141 23l-20 20l229 229l20 -20zM876 23l-228 229l20 20l229 -229zM537 208v-19h-56v19l-360 334l35 35l353 -327l353 327l35 -35z" />
    <glyph glyph-name="uniE602" unicode="&#xe602;" 
d="M357 443q24 24 22 39q0 10 -5 18q-1 2 -11 11l-21 21q-3 3 -99 100l-11 12q-8 7 -12 10q-10 11 -13 12q-6 4 -15 5q-6 0 -13 -3.5t-10.5 -6.5t-13.5 -13q-7 -7 -18.5 -19t-19.5 -19q95 -95 203 -204l19 19zM504 104q-7 5 -21.5 17t-21.5 17q-10 8 -14 11q-12 11 -18 17
q-9 8 -20 18l-5 5l-14 14l-7 7q-4 4 -11 11.5t-9 9.5q-1 1 -17 19q-3 3 -10 13q-4 5 -13 16t-14 17q-39 60 -7 92l-100 100l-103 103q-8 -8 -13 -17q-9 -17 -14 -36q-16 -60 1 -132q7 -34 28 -84q6 -14 30 -58q5 -9 16.5 -26t12.5 -19q8 -11 10 -15q6 -8 18 -23t17 -22
q2 -3 6.5 -8t7.5 -8q4 -4 11.5 -13t10.5 -13q21 -23 27 -28q1 -1 3 -3.5t3 -3.5q9 -8 24 -24q1 -1 3.5 -3t3.5 -3q23 -22 25 -24l8 -7q5 -5 15 -13.5t13 -11.5q12 -9 26 -21q7 -5 17 -12q5 -4 21 -15t25 -17q41 -24 54 -31q27 -13 56 -24q17 -7 26 -9q3 -1 14 -4t17 -4
q66 -14 117 -1q23 5 38 14q15 7 23 16q-24 24 -95 95.5t-108 108.5q-14 -14 -31.5 -14t-29.5 6t-32 20zM875 -3q-2 3 -12 13q-20 20 -21 20q-87 88 -96 97l-11 11l-11 11q-11 11 -15 13h3q-5 9 -22 10q-10 0 -19 -6l-27 -28l-29 -28q88 -87 203 -203l18 19l20 19
q10 9 13.5 13t7 10.5t2.5 13.5q-1 9 -4 15zM741 382h73q0 91 -64 155.5t-155 64.5v-73q61 0 103.5 -43t42.5 -104zM595 749v-74q121 0 206.5 -85.5t85.5 -207.5h74q0 100 -49 184t-133.5 133.5t-183.5 49.5z" />
    <glyph glyph-name="uniE603" unicode="&#xe603;" 
d="M512 300zM274.5 707q70.5 0 120 -49.5t49.5 -120.5v-157q0 -5 -3.5 -8.5t-8.5 -3.5h-157q-71 0 -120.5 49.5t-49.5 120t49.5 120t120 49.5zM275 741q-85 0 -144.5 -59.5t-59.5 -144t59.5 -144t144.5 -59.5h157q19 0 32.5 13.5t13.5 32.5v157q0 85 -59.5 144.5
t-143.5 59.5zM432 232q5 0 8.5 -3.5t3.5 -8.5v-157q0 -71 -49.5 -120.5t-120 -49.5t-120 49.5t-49.5 120t49.5 120t120.5 49.5h157zM432 266h-157q-85 0 -144.5 -59.5t-59.5 -144t59.5 -144t144 -59.5t144 59.5t59.5 144.5v157q0 19 -13.5 32.5t-32.5 13.5zM749.5 707
q70.5 0 120 -49.5t49.5 -120t-49.5 -120t-120.5 -49.5h-157q-5 0 -8.5 3.5t-3.5 8.5v157q0 71 49.5 120.5t120 49.5zM749 741q-84 0 -143.5 -59.5t-59.5 -144.5v-157q0 -19 13.5 -32.5t32.5 -13.5h157q85 0 144.5 59.5t59.5 144t-59.5 144t-144.5 59.5zM749 232
q71 0 120.5 -49.5t49.5 -120t-49.5 -120t-120 -49.5t-120 49.5t-49.5 120.5v157q0 5 3.5 8.5t8.5 3.5h157zM749 266h-157q-19 0 -32.5 -13.5t-13.5 -32.5v-157q0 -85 59.5 -144.5t144 -59.5t144 59.5t59.5 144t-59.5 144t-144.5 59.5z" />
    <glyph glyph-name="uniE604" unicode="&#xe604;" 
d="M366 432q-1 -60 43 -104t104.5 -43t104 44t43.5 103q0 59 -43.5 102t-104.5 43t-104 -42.5t-43 -102.5zM512 -212q-33 45 -101 135t-120 160.5t-96 136.5q-47 69 -61.5 147.5t4 150t60 132.5t109 103t148.5 54q89 14 172 -12t143 -79.5t94.5 -133.5t31.5 -169
q-5 -112 -72 -204q-37 -51 -298 -403q0 -1 -14 -18z" />
    <glyph glyph-name="uniE605" unicode="&#xe605;" 
d="M856 184q-6 81 -83 167q3 7 4.5 21.5t-5 37.5t-22.5 40v2q0 107 -67 177t-164 71q-97 -1 -163.5 -71t-66.5 -177v-2q-17 -17 -23 -40t-5 -37.5t4 -21.5q-77 -86 -83 -167q-2 -41 12 -59q7 -7 17 -4.5t23.5 17.5t24.5 38q13 -46 54 -100q-26 -6 -42 -24t-17 -36.5t7 -35.5
q23 -38 93 -38q106 0 150 42q5 5 15 5t16 -5q43 -42 149 -42q70 0 94 38q7 17 6.5 35.5t-16.5 36.5t-42 24q40 54 53 100q11 -23 24.5 -38t24 -17.5t16.5 4.5q14 18 12 59z" />
    <glyph glyph-name="uniE606" unicode="&#xe606;" 
d="M853 684h-725q-32 0 -58.5 -26.5t-26.5 -58.5v-470q0 -32 26.5 -58.5t58.5 -26.5h128v-171l171 171h426q32 0 59 26.5t27 58.5v470q0 32 -27 58.5t-59 26.5zM277.5 300q-26.5 0 -45.5 19t-19 45t19 45t45.5 19t45 -19t18.5 -45t-18.5 -45t-45 -19zM490.5 300
q-26.5 0 -45 19t-18.5 45t18.5 45t45 19t45.5 -19t19 -45t-19 -45t-45.5 -19zM704 300q-26 0 -45 19t-19 45t19 45t45 19t45 -19t19 -45t-19 -45t-45 -19z" />
    <glyph glyph-name="uniE607" unicode="&#xe607;" 
d="M856 544h4q0 9 -4 22v4h-2q-12 36 -43 55q-24 16 -47 21v3h-15h-2h-3h-58l-21 84v2h-1v1l-1 -1h-257l-2 1l-22 -87h-53h-7h-8h-11v-2q-26 -4 -57 -22q-23 -13 -33.5 -33.5t-10.5 -34.5l1 -14h2v-400h98v-119h461v119h92v401zM331 52v569h43l-26 -102l186 51l186 -51
l-26 102h42v-569h-405zM534 609l-12 12h25zM681 559l-123 34l91 89zM511 592l-124 -33l32 123zM796 602q18 -12 28 -31h-60v46q14 -4 32 -15zM635 708l-60 -59h-82l-60 59h202zM260 601q23 13 43 18v-48h-69q6 18 26 30zM233 171v371h70v-371h-70zM828 171h-64v371h64v-371z
" />
    <glyph glyph-name="uniE608" unicode="&#xe608;" 
d="M196 126v-158l317 -126l319 129v160l161 68l-162 165l162 156l-321 71l-149 -123l-160 123l-329 -64l164 -164h22l293 95l295 -95l-277 -120l-311 115v15l-23 -14l-166 -161z" />
    <glyph glyph-name="uniE609" unicode="&#xe609;" 
d="M252.5 686q-52.5 0 -89 -37t-36.5 -89.5t36.5 -89t89 -36.5t89.5 36.5t37 89t-37 89.5t-89.5 37zM234 211q37 37 37 89.5t-37 89.5t-89 37t-89 -37t-37 -89.5t37 -89.5t89 -37t89 37zM252.5 167q-52.5 0 -89.5 -37t-37 -89.5t37 -89t89.5 -36.5t89 36.5t36.5 89
t-36.5 89.5t-89 37zM422 22q-37 -37 -37 -89t37 -89t89.5 -37t89.5 37t37 89t-37 89t-89.5 37t-89.5 -37zM771.5 166q-52.5 0 -89.5 -36.5t-37 -89t37 -89.5t89.5 -37t89 37t36.5 89.5t-36.5 89t-89 36.5zM968 389q-37 37 -89 37t-89 -37t-37 -89.5t37 -89.5t89 -37t89 37
t37 89.5t-37 89.5zM771.5 433q52.5 0 89.5 37t37 89.5t-37 89t-89.5 36.5t-89 -36.5t-36.5 -89t36.5 -89.5t89 -37zM423 756q-37 -37 -37 -89t37 -89t89.5 -37t89.5 37t37 89t-37 89t-89.5 37t-89.5 -37z" />
    <glyph glyph-name="uniE60A" unicode="&#xe60a;" 
d="M119 667v-153h47v44h696v-44h47v153h-790zM827 526h-626v-501h-84v-99h788v99h-78v501zM493 20h-179v347h179v-347zM655 184h-77v78h77v-78zM655 291h-77v76h77v-76zM761 184h-77v78h77v-78zM761 291h-77v76h77v-76z" />
    <glyph glyph-name="uniE60B" unicode="&#xe60b;" 
d="M512 812q-139 0 -257 -68.5t-186.5 -186.5t-68.5 -257t68.5 -257t186.5 -186.5t257 -68.5t257 68.5t186.5 186.5t68.5 257t-68.5 257t-186.5 186.5t-257 68.5zM947 316h-168q-1 50 -9.5 87t-27.5 90q11 4 21 9.5t16.5 9t17.5 11.5t14.5 10.5t17 13t16.5 13.5
q51 -57 75 -112.5t27 -131.5zM494 -135q-19 16 -36 39t-23.5 35t-24.5 50.5t-22 45.5l12 4q9 3 11.5 3.5t9.5 2.5t10 3t9.5 2.5t10 2t9.5 1.5t11 1.5t11.5 1t13.5 0.5v-192h-2zM530 735q93 -78 144 -198q-3 -1 -8 -3q-26 -8 -38 -12t-31.5 -7.5t-42.5 -3.5l-26 224h2z
M584 730q66 -11 129 -43.5t110 -77.5q-5 -4 -15.5 -12.5t-15 -12t-13.5 -9.5t-15 -9.5t-15 -8.5t-19 -9q-6 15 -14 29t-20 30t-19.5 25.5t-24.5 27.5t-22 23.5t-24 24.5zM496 735v-224q-24 1 -45.5 5t-32.5 7t-42 14q2 6 11.5 28.5t12.5 29.5t11.5 26t13.5 26.5t13.5 23
t16 24.5t18 20t21.5 20h1h1zM320 548q-51 22 -102 61q105 101 222 121q-76 -77 -120 -182zM363 482l47 -16q13 -4 36.5 -8t49.5 -5v-137h-168q2 47 9.5 81.5t25.5 84.5zM496 258v-143q-24 -1 -45.5 -4.5t-33 -7t-42.5 -13.5q-4 10 -15 34.5t-13.5 32.5t-8.5 26t-7.5 35
t-2.5 40h168zM440 -130q-119 20 -211 99q49 34 103 55q42 -88 108 -154zM528 -135l26 192q7 0 13.5 -0.5t13.5 -1.5t11.5 -1.5t11.5 -1.5l10 -2q3 -1 11.5 -3.5t10 -3t13 -4t13.5 -4.5q-50 -102 -132 -170h-2zM718 24q16 -6 27.5 -14.5t24.5 -20.5t25 -20q-92 -79 -211 -99
q6 7 33 33t40.5 40t32 37t28.5 44zM675 90q-31 10 -43 13.5t-33 7t-45 4.5v143h167q0 -23 -2 -40t-7.5 -35t-8.5 -26t-13.5 -32.5t-14.5 -34.5zM554 316v137q26 1 49.5 5t37 8.5t45.5 15.5q18 -50 26 -84.5t9 -81.5h-167zM196 560q56 -44 112 -67q-19 -53 -27.5 -90
t-10.5 -87h-193q2 72 31.5 125.5t87.5 118.5zM77 258h193q1 -20 3 -37.5t4 -29t8 -28.5t8.5 -24t12 -29t13.5 -31q-59 -23 -114 -62q-34 34 -52.5 54.5t-37.5 50t-28 62.5t-10 74zM819 17q-12 8 -27.5 22t-29 23.5t-31.5 16.5q4 9 13 31t12 29t9 24t7.5 28.5t4 29t2.5 37.5
h168q-1 -41 -10 -74t-28 -62.5t-37.5 -50t-52.5 -54.5z" />
    <glyph glyph-name="uniE60C" unicode="&#xe60c;" 
d="M590 -58q2 0 -3 12.5t-18.5 37t-30.5 50.5q-16 -13 -54.5 -36.5t-52.5 -32.5q-12 14 -32.5 38t-81.5 83.5t-120 101.5q-38 27 -66 60t-42.5 64.5t-21 64t-5 59.5t9.5 50q18 59 69.5 103t113.5 44q47 0 98 -25.5t76 -47.5l7 -5l6 5q87 84 198 80q46 -1 81.5 -16
t56.5 -38.5t32.5 -46t15.5 -45.5q8 -25 3.5 -70.5t-22.5 -83.5q34 0 65 -13.5t56.5 -48t29.5 -84.5q4 -39 -16 -73.5t-52 -57.5t-76.5 -44t-83.5 -34t-80 -27.5t-60 -23.5zM781 491q-17 62 -58.5 88t-120.5 24q-26 -1 -53 -12t-46.5 -26.5t-35.5 -30.5t-24 -26l-9 -10
l-10 10q-7 7 -27.5 24t-40 30t-45 23.5t-45.5 10.5q-52 0 -93 -33t-56 -81q-17 -52 12 -125.5t105 -128.5q48 -35 99.5 -82.5t78.5 -76t27 -29.5q9 6 34.5 21t35.5 22q-26 39 -44 83t-25.5 89.5t7 86.5t51.5 65q44 22 83 22t63 -14.5t42 -33.5t25.5 -33t7.5 -16q14 6 35 10
q20 37 27.5 81t-0.5 68z" />
    <glyph glyph-name="uniE60D" unicode="&#xe60d;" 
d="M204 634h612q17 0 29.5 12.5t12.5 30.5t-12.5 30.5t-29.5 12.5h-612q-17 0 -29.5 -12.5t-12.5 -30.5t12.5 -30.5t29.5 -12.5v0zM877 591h-734l-78 -216q0 -48 32.5 -81.5t78.5 -33.5t78.5 33.5t32.5 81.5q0 -48 33 -81.5t79 -33.5t78.5 33.5t32.5 81.5q0 -48 32.5 -81.5
t78.5 -33.5t79 33.5t33 81.5q0 -48 32.5 -81.5t78.5 -33.5t78.5 33.5t32.5 81.5l-78 216v0zM830 218q-6 0 -12 1l-1 1h-2l-5 1q-12 3 -22 7v-213h-556v213q-11 -4 -22 -7q-1 0 -6 -1l-2 -1q-6 -1 -12 -1q-6 -1 -14 -1q-14 0 -28 2v-290q0 -18 12.5 -30.5t29.5 -12.5h640
q17 0 29.5 12.5t12.5 30.5v290q-16 -2 -28 -2q-8 0 -14 1v0z" />
    <glyph glyph-name="uniE60E" unicode="&#xe60e;" 
d="M842 277h-660q-9 0 -16 7t-7 16t7 16t16 7h660q9 0 16 -7t7 -16t-7 -16t-16 -7zM842 528h-660q-9 0 -16 6.5t-7 16t7 16t16 6.5h660q9 0 16 -6.5t7 -16t-7 -16t-16 -6.5zM182 72h660q9 0 16 -6.5t7 -16t-7 -16t-16 -6.5h-660q-9 0 -16 6.5t-7 16t7 16t16 6.5z" />
    <glyph glyph-name="uniE60F" unicode="&#xe60f;" 
d="M368 310q0 -21 -15 -36t-36 -15t-36 15t-15 36t15 36t36 15t36 -15t15 -36zM955 338.5q0 104.5 -59.5 194t-161.5 141t-222.5 51.5t-223 -51.5t-162 -141t-59.5 -193.5q0 -95 51 -179.5t140 -138.5v-122q0 -14 13 -20q5 -3 11 -3q7 0 13 4l56 37q1 1 3 2l63 42
q48 -9 94 -9q121 0 223 52t161.5 141t59.5 193.5zM293 55q-84 48 -131.5 123t-47.5 161q0 92 53.5 170t145 123.5t199 45.5t199 -45.5t144.5 -123.5t53 -170t-53 -170.5t-144.5 -124t-199.5 -45.5q-46 0 -94 10q-9 2 -18 -3l-74 -50l-3 -2l-17 -11v92q0 13 -12 20z
M571 324.5q0 -21.5 -15 -36.5t-36 -15t-36 15t-15 36.5t14.5 36.5t36 15t36.5 -15t15 -36.5zM771 324.5q0 -21.5 -15 -36.5t-36 -15t-36 15t-15 36.5t15 36.5t36 15t36 -15t15 -36.5z" />
    <glyph glyph-name="uniE610" unicode="&#xe610;" 
d="M884 183l-18 -30q-12 -20 -22 -35.5t-20 -28.5q-87 -114 -227 -111q-91 2 -274 -1q-21 0 -29.5 8.5t-7.5 29.5q2 87 0 219q0 18 7 25.5t25 7.5q28 -1 231 -1q61 0 83.5 -16.5t40.5 -77.5q37 52 38 54q41 66 86.5 67t86.5 -63v-47zM323 13h34q23 0 70 0.5t84 0.5t70 -2
q92 -5 154 39t106 130q11 21 6 39.5t-24 29.5q-18 10 -37 5t-32 -25q-4 -6 -18 -29t-23 -35q-41 -54 -107 -51q-28 1 -80 0.5t-80 0.5q-8 0 -18 5.5t-11 9.5q0 4 0.5 7t1.5 5t3.5 3t4 2t5.5 1h4h6h5q28 1 74 0.5t73 0.5q25 0 34 13t1 36q-13 32 -55 32h-118h-118
q-1 0 -15 -2v-216zM754 668q1 -4 3.5 -12.5t4 -14.5t1.5 -12q0 -7 2 -33t0 -40.5t-10 -22.5q-7 -8 -21.5 -10t-41 -0.5t-32.5 1.5h-144q-101 0 -143 -1q-19 0 -27 7t-7 27q1 9 6 111h409zM550 629h-166v-61h166v61zM127 283h134l4 -8v-309l-2 -8h-136v325zM232 221
q-5 4 -13 11.5t-12 10.5t-8 2t-8.5 -4.5t-10.5 -9.5l-8 -8q2 -3 7.5 -9.5t9.5 -10.5t9 -5q3 0 7.5 2.5t12.5 9.5t14 11zM550 350h-180q-18 0 -25 7t-6 24q2 38 0 86q0 15 6.5 21.5t21.5 5.5q206 0 367 1q17 0 23.5 -7t5.5 -23q-1 -44 0 -86q1 -16 -6 -22.5t-23 -6.5h-184z
M550 459h-166v-62h166v62zM728 320q-47 -55 -48 -56q-13 18 -30 29t-39 15t-37 4.5t-43 0.5q-14 -1 -184 -1v4v4h381zM728 320z" />
    <glyph glyph-name="uniE611" unicode="&#xe611;" 
d="M334 166l178 148l-256 158l-176 -141zM512 314l178 -148l254 165l-176 141zM513 281v2v-1l-1 1v-2l-178 -147l-76 50v-56l254 -152v-1l1 1v-1v1l254 152v56l-76 -50zM80 612l176 -140l256 158l-178 148zM690 778l-178 -148l256 -158l176 140z" />
    <glyph glyph-name="uniE612" unicode="&#xe612;" 
d="M1007 354l-495 463l-495 -462q-7 -7 -7.5 -17t6.5 -17t16.5 -7.5t17.5 6.5l462 431l462 -433q7 -6 17 -6t17 8q7 7 6.5 17t-7.5 17zM856 344q-10 0 -17 -7t-7 -17v-368h-192v256h-256v-256h-192v368q0 10 -7 17t-17 7t-17 -7t-7 -17v-416h288v256h160v-256h288v416
q0 10 -7 17t-17 7zM688 688h144v-128q0 -10 7 -17t17 -7t17 7t7 17v176h-192q-10 0 -17 -7t-7 -17t7 -17t17 -7z" />
    <glyph glyph-name="uniE613" unicode="&#xe613;" 
d="M824 891h-624q-65 0 -110.5 -45t-45.5 -109v-707q0 -64 45.5 -109t110.5 -45h623q65 0 110.5 45t45.5 109v707q1 64 -44.5 109t-110.5 45zM908 31q0 -34 -24.5 -58.5t-59.5 -24.5h-623q-35 0 -59.5 24t-24.5 59v707q0 34 24.5 58.5t59.5 24.5h623q35 0 59.5 -24t24.5 -59
v-707zM258 582h269q15 0 25.5 10t10.5 25t-10.5 25.5t-25.5 10.5h-269q-15 0 -25.5 -10t-10.5 -26q-1 -15 10 -25t26 -10zM766 420h-508q-15 0 -25.5 -10.5t-10.5 -25.5t10.5 -25.5t25.5 -10.5h509q15 0 25.5 10.5t10.5 25.5t-11 25.5t-26 10.5zM766 186h-508
q-15 0 -25.5 -10t-10.5 -25t10.5 -25.5t25.5 -10.5h509q15 0 25.5 10t10.5 25.5t-11 25.5t-26 10z" />
    <glyph glyph-name="uniE614" unicode="&#xe614;" 
d="M798 -110h-659q-46 0 -78 32t-32 76v719q0 45 32 76.5t78 31.5h512q16 0 26.5 -10.5t10.5 -25.5t-10.5 -25.5t-26.5 -10.5h-512q-15 0 -26 -10.5t-11 -25.5v-719q0 -15 11 -25.5t26 -10.5h659q15 0 26 10.5t11 25.5v576q0 14 10.5 24.5t25.5 10.5t26 -10.5t11 -24.5v-576
q0 -44 -32.5 -76t-77.5 -32zM583 466q-15 0 -26 10.5t-11 25t11 25.5l364 357q11 11 26 11t25.5 -10.5t10.5 -25.5t-10 -25l-364 -358q-11 -10 -26 -10zM432 466h-220q-15 0 -26 10.5t-11 25t11 25.5t26 11h220q15 0 25.5 -11t10.5 -25.5t-10.5 -25t-25.5 -10.5zM651 250
h-439q-15 0 -26 10.5t-11 25.5t11 25.5t26 10.5h439q16 0 26.5 -10.5t10.5 -25.5t-10.5 -25.5t-26.5 -10.5z" />
    <glyph glyph-name="uniE615" unicode="&#xe615;" 
d="M896 797l29 -29q7 -7 0 -14l-346 -346l22 9l-89 -1l32 -33l1 90l-9 -22l346 346q7 7 14 0v0zM941 842q-22 22 -52 22t-52 -22l-346 -346l-10 -9v-13l-1 -90v-33l32 1l90 1h13l9 9l346 347q22 21 22 51.5t-21 52.5l-30 29v0zM642 768h-386q-53 0 -90.5 -37.5t-37.5 -91.5
v-510q0 -54 37.5 -91.5t91.5 -37.5h510q54 0 91.5 37.5t37.5 90.5v383h-64v-383q0 -26 -19 -45t-46 -19h-510q-27 0 -46 19t-19 46v510q0 27 18.5 46t45.5 19h386v64z" />
    <glyph glyph-name="uniE616" unicode="&#xe616;" 
d="M992 727h-960q-13 0 -22.5 -9.5t-9.5 -22.5v-22q0 -13 9.5 -22.5t22.5 -9.5h960q13 0 22.5 9.5t9.5 22.5v22q0 13 -9.5 22.5t-22.5 9.5zM992 -41h-960q-13 0 -22.5 -9.5t-9.5 -22.5v-22q0 -13 9.5 -22.5t22.5 -9.5h960q13 0 22.5 9.5t9.5 22.5v22q0 13 -9.5 22.5
t-22.5 9.5zM32 385h491q13 0 22.5 9.5t9.5 22.5v22q0 13 -9.5 22.5t-22.5 9.5h-491q-13 0 -22.5 -9.5t-9.5 -22.5v-22q0 -13 9.5 -22.5t22.5 -9.5zM32 129h619q13 0 22.5 9.5t9.5 22.5v22q0 13 -9.5 22.5t-22.5 9.5h-619q-13 0 -22.5 -9.5t-9.5 -22.5v-22q0 -13 9.5 -22.5
t22.5 -9.5z" />
    <glyph glyph-name="uniE617" unicode="&#xe617;" 
d="M855 896h-707q-28 0 -48.5 -10t-29.5 -24.5t-14.5 -28.5t-6.5 -24v-11v-828q0 -4 0.5 -11t6 -23.5t15 -29.5t30 -23.5t48.5 -10.5h585l217 171v755q0 4 -1 11t-6 23.5t-14 29.5t-29 23.5t-46 10.5zM902 67l-195 -146h-536q-21 0 -36 8t-22 17.5t-11 22t-4 17.5v8v780v8
q0 5 4 17.5t11 22t22 17.5t36 8h658q20 0 35.5 -7.5t22 -18t10.5 -21.5t5 -18v-8v-707zM219 360h561v-49h-561v49zM219 555h561v-49h-561v49zM219 750h269v-49h-269v49zM853 189h-219v-219h49v170h170v49z" />
    <glyph glyph-name="uniE618" unicode="&#xe618;" 
d="M56 764q-23 0 -38.5 -15.5t-15.5 -38t15.5 -38.5t38.5 -16h914q22 0 38 16q16 15 16 38q0 22 -16 38t-38 16h-914zM56 439q-23 0 -38.5 -16t-15.5 -38t15.5 -38t38.5 -16h914q22 0 38 15q16 16 16 39q0 22 -16 38t-38 16h-914zM56 126q-23 0 -38.5 -16t-15.5 -38.5
t15.5 -38t38.5 -15.5l914 -1q22 0 38 16t16 38q0 23 -16 38.5t-38 15.5zM396 234z" />
    <glyph glyph-name="uniE619" unicode="&#xe619;" 
d="M924 178q-11 -51 -34.5 -89.5t-52 -60t-64.5 -35t-67.5 -17.5t-66.5 -3t-56 4t-40 8v-13h-35v13q-19 -5 -40 -8t-55.5 -4t-65.5 3t-67 17t-64.5 35t-52.5 60.5t-36 89.5q5 2 14 5.5t36 9t54 6.5t65 -6t72.5 -25t72 -55t67.5 -91v224q-36 1 -68 6.5t-65 20.5t-56.5 38
t-38 61.5t-14.5 88.5v285q5 -1 14.5 -5t36.5 -17t51.5 -28.5t54.5 -41t51.5 -54t36 -67t14.5 -80.5q0 -32 7.5 -57t22.5 -44t26.5 -29.5t30.5 -24.5q63 17 101 53.5t38 106.5v235q-7 -3 -18 -7.5t-40 -22t-53 -37.5t-47.5 -53t-32.5 -68l-35 -18q5 38 22 72.5t40 59.5
t50 46.5t53 36t47.5 24.5t34.5 15t13 4v-284q0 -186 -213 -212q-12 -2 -29 -2v-226q30 52 67.5 89t72 54.5t72.5 25.5t65 7t54 -6t36 -8t14 -5zM889 161q-4 1 -11.5 2.5t-30 3.5t-45.5 0t-54 -11.5t-59 -26t-58 -48.5t-54 -75l55 -3q163 0 231 102q16 25 26 56zM162 161
q10 -40 32.5 -70.5t50.5 -46.5t60 -26.5t61 -13t54 -2t39 2t15 1.5q-82 156 -234 163q-46 2 -78 -8zM577 281q-86 61 -86 172q0 44 -20 85.5t-48 68.5t-55.5 47.5t-47.5 29.5l-20 10v-236q0 -41 16.5 -73t40 -50.5t56.5 -30.5t59 -16.5t55 -6.5q4 0 24 -0.5t26 0.5zM370 762
q76 23 115 29.5t81.5 1t118.5 -27.5q1 0 -39 -31t-80 -61l-41 -31q-113 87 -155 120zM439 745l86 -68l87 68q-59 17 -87.5 17t-85.5 -17z" />
    <glyph glyph-name="uniE61A" unicode="&#xe61a;" 
d="M944 522.5q11 -13.5 11.5 -28.5t-8.5 -23l-417 -325q-2 -1 -7.5 -5t-6.5 -5q-12 -13 -26.5 -16t-23.5 5l-393 354q-9 8 -7 23t13.5 28t26 16.5t23.5 -5.5l358 -322l408 318q10 8 24 3.5t25 -18z" />
    <glyph glyph-name="uniE61B" unicode="&#xe61b;" 
d="M786 610h-17q-16 29 -37 48.5t-43 19.5h-248q-22 0 -43 -19.5t-38 -48.5h-76v22q0 10 -7 16.5t-16 6.5t-16 -6.5t-7 -16.5v-22q-38 0 -64.5 -27t-26.5 -65v-365q0 -38 26.5 -64.5t64.5 -26.5h548q38 0 64.5 26.5t26.5 64.5v365q0 38 -26.5 65t-64.5 27zM441 632h248
q10 0 27 -22h-302q17 22 27 22zM831 153q0 -19 -13 -32.5t-32 -13.5h-548q-19 0 -32 13.5t-13 32.5v251h131q-11 -31 -11 -63q0 -81 57 -137.5t137 -56.5t137 56.5t57 137.5q0 32 -11 63h141v-251zM359 341q0 61 43.5 104.5t104.5 43.5t104.5 -43.5t43.5 -105t-43.5 -105
t-104.5 -43.5t-104.5 43.5t-43.5 105.5zM831 450h-164q-26 39 -68.5 62t-91.5 23t-91.5 -23t-68.5 -62h-154v68q0 19 13 32.5t32 13.5h548q19 0 32 -13.5t13 -32.5v-68zM831 450z" />
    <glyph glyph-name="uniE61C" unicode="&#xe61c;" 
d="M310 312q0 16 11 27t26.5 11t27 -11t11.5 -27t-11.5 -27t-27 -11t-26.5 11t-11 27zM612 312q0 16 11 27t27 11t27 -11t11 -27t-11 -27t-27 -11t-27 11t-11 27zM590 155q-25 -26 -67 -13q0 1 -1 1l1 28q14 3 23 12.5t9 21.5q0 25 -45 25t-45 -25q0 -12 9 -21.5t23 -12.5
v-30q-8 -3 -17 -4q-26 -2 -49 20q-9 9 -18 0t0 -18q28 -28 63 -28q4 0 8 1q15 1 28 8q1 -1 3 -2q17 -5 34 -5h2q34 1 57 24q9 9 0 18t-18 0zM857 519q-100 63 -164 70q-24 11 -56 19q-67 16 -147 16q-81 0 -144 -17q-36 -10 -61 -25q-54 -19 -117 -59q-64 -40 -88 -94
t-2 -94q13 -26 56 -36v-1q-22 -94 38 -169q50 -62 144 -97q89 -33 191 -33q100 0 188 33q93 35 143 96q60 73 42 163q0 2 -1 4q51 4 68 36q21 40 -2.5 94t-87.5 94zM795 163q-41 -50 -119 -79.5t-169 -29.5q-93 0 -172.5 29.5t-119.5 79.5q-43 54 -28 123q1 4 3 10
q37 4 70 21t52 48q81 134 74 195q47 10 104 10q84 0 149 -19q0 -16 9 -38.5t18 -38.5t32.5 -52t33.5 -54q31 -49 90 -67q3 -11 4 -20q13 -65 -31 -118z" />
    <glyph glyph-name="uniE61D" unicode="&#xe61d;" 
d="M814 395q0 18 -3 38q0 11 -2.5 27.5t-16 57.5t-36.5 84t-71 104.5t-112 121.5q-10 10 -22.5 4.5t-12.5 -19.5v-117q-14 1 -27 1t-27 -1v117q0 14 -12.5 19.5t-22.5 -4.5q-64 -60 -111.5 -121.5t-70.5 -104.5t-37 -84t-16.5 -57.5t-2.5 -27.5q-2 -20 -2 -38l-31 -436
q-1 -9 5.5 -15.5t15.5 -6.5h625q9 0 15 6.5t6 15.5zM580 764q57 -58 98 -117q-45 30 -98 42v75zM443 764v-75q-53 -12 -98 -42q41 59 98 117zM221 -22l29 415v2q0 108 76.5 184.5t184.5 76.5t184.5 -76.5t76.5 -184.5v-2l30 -415h-581zM604 421h-184q-8 0 -14.5 -6.5
t-6.5 -14.5q0 -34 26 -60t65 -32q-8 -38 -38 -58q-7 -5 -9 -13.5t3 -15.5q6 -9 17 -9q6 0 12 3q23 15 38 39q14 -24 37 -39q6 -3 12 -3q11 0 17 9q5 7 3 15.5t-9 13.5q-30 20 -38 58q39 7 64.5 32.5t25.5 59.5q0 8 -6.5 14.5t-14.5 6.5zM512 347q-22 0 -39.5 9t-25.5 23h130
q-8 -14 -25.5 -23t-39.5 -9zM653 469.5q0 -12.5 8.5 -21t21 -8.5t21 8.5t8.5 21t-8.5 21t-21 8.5t-21 -8.5t-8.5 -21zM318 469.5q0 -12.5 9 -21t21.5 -8.5t21 8.5t8.5 21t-8.5 21t-21 8.5t-21.5 -8.5t-9 -21z" />
    <glyph glyph-name="uniE61E" unicode="&#xe61e;" 
d="M510 -51q-192 0 -328 97q-68 48 -104 110.5t-36 131.5t36 131.5t104 110.5q136 97 328 97t328 -97q68 -48 104 -110.5t36 -131.5t-36 -131.5t-104 -110.5q-136 -97 -328 -97zM510.5 580q-114.5 0 -212 -39t-154 -106.5t-56.5 -146.5t56.5 -146.5t154 -106.5t212 -39
t211.5 39t153.5 106.5t56.5 146.5t-56.5 146.5t-153.5 106.5t-211.5 39zM89 397q-9 0 -15.5 5.5t-7.5 13.5q-17 118 -20 176q-9 193 59 222q44 18 105.5 -32t149.5 -177q6 -8 4 -17t-9.5 -15t-17 -4t-15.5 10q-29 41 -55 74t-45 53t-35.5 34.5t-26.5 20.5t-18.5 9t-12.5 2.5
t-6 -1.5q-16 -7 -25.5 -50.5t-5.5 -126.5q1 -17 2.5 -36t3.5 -35t3.5 -31.5t3.5 -27.5l3 -21q2 -9 2 -14l1 -5q2 -9 -3.5 -17t-14.5 -10h-4zM933 397h-4q-10 2 -15.5 9.5t-3.5 17.5q0 1 3.5 23.5t8 65.5t6.5 81q4 82 -5.5 126t-25.5 51q-3 -1 -6.5 1t-12.5 -2l-19 -10
q-10 -5 -26.5 -20t-35 -34.5t-44.5 -53t-55 -74.5q-6 -8 -15.5 -10t-17 3.5t-9.5 15t4 17.5q88 127 149 177.5t105 32.5q69 -29 60 -222q-3 -65 -19 -177q-1 -8 -7.5 -13t-14.5 -5zM454 248q0 11 16.5 18.5t40 7.5t40 -7.5t16.5 -18.5t-16.5 -18.5t-40 -7.5t-40 7.5
t-16.5 18.5zM407 98q-7 0 -14 1q-21 5 -37 22.5t-24 40.5t-11.5 36.5t-5.5 22.5q-1 9 4 16t13.5 8t15.5 -4t8 -14q4 -26 16.5 -55t29.5 -33q33 -8 91 78q5 7 13.5 8.5t15.5 -3t8.5 -13t-3.5 -15.5q-66 -96 -120 -96zM614 95q-55 0 -121 97q-5 7 -3 15.5t9 13t15.5 3
t12.5 -8.5q59 -85 92 -78q17 4 29.5 33t16.5 56q1 8 7.5 13t15 4t13.5 -8t4 -15q-1 -10 -4.5 -23t-11.5 -36.5t-24 -41t-37 -22.5q-7 -2 -14 -2zM195 348q-6 0 -11 3q-8 5 -9.5 13.5t3.5 15.5q3 3 6.5 8t15 16.5t24 20t31.5 16t39 8.5q68 4 129 -68q5 -6 4.5 -14.5t-7 -14
t-14.5 -5t-14 7.5q-49 56 -96 53q-22 -1 -43 -14.5t-30 -24t-11 -13.5q-6 -8 -17 -8zM825 352q-11 0 -17 9q-3 5 -11 14t-29.5 23t-43.5 15q-48 3 -96 -53q-5 -7 -13.5 -7.5t-15 5t-7 14t4.5 15.5q62 71 130 67q62 -3 115 -69q5 -7 3.5 -15.5t-8.5 -13.5q-6 -4 -12 -4z
M18 111q-9 0 -14 8q-7 14 7 21q73 37 210 61q7 2 12 -2t6.5 -10t-2.5 -11.5t-10 -6.5q-141 -28 -202 -59q-3 -1 -7 -1zM57 37q-7 0 -12 6q-9 12 3 22q28 23 78 49.5t78 38.5t39 17q6 2 12 -0.5t8 -8.5t-0.5 -11.5t-8.5 -8.5q-12 -5 -36.5 -15.5t-74 -37t-76.5 -47.5
q-4 -4 -10 -4zM1006 111q-3 0 -7 1q-30 15 -79.5 29.5t-82 21t-35.5 6.5q-7 2 -10.5 7t-2.5 11.5t6.5 10t11.5 2.5q134 -24 206 -60q14 -7 7 -21q-4 -8 -14 -8zM968 39q-6 0 -10 3q-56 45 -182 98h-1q-6 3 -8.5 9t-0.5 11q3 6 8.5 8.5t11.5 0.5q14 -6 39 -17t74.5 -37
t77.5 -49q12 -9 2 -21q-4 -6 -11 -6z" />
    <glyph glyph-name="uniE61F" unicode="&#xe61f;" 
d="M300 748l456 -447l-456 -446l-35 34l421 412l-421 412z" />
    <glyph glyph-name="uniE620" unicode="&#xe620;" 
d="M273 300l432 431l34 -34l-431 -431zM705 -130l-432 431l35 34l431 -431z" />
    <glyph glyph-name="uniE621" unicode="&#xe621;" 
d="M512 556l-512 -512h136l376 376l376 -376h136z" />
    <glyph glyph-name="uniE622" unicode="&#xe622;" 
d="M277 195l251 250l251 -250h-502z" />
    <glyph glyph-name="uniE623" unicode="&#xe623;" 
d="M686 -16h-576q-33 0 -56.5 23.5t-23.5 56.5v354q0 33 23.5 56.5t56.5 23.5h576q33 0 56.5 -23.5t23.5 -56.5v-354q0 -33 -23.5 -56.5t-56.5 -23.5zM110 466q-20 0 -34 -14t-14 -34v-354q0 -20 14 -34t34 -14h576q20 0 34 14t14 34v354q0 20 -14 34t-34 14h-576zM224 534
q-59 0 -101 41.5t-42 101t42 101.5t101 42t101 -42t42 -101.5t-42 -101t-101 -41.5zM224 788q-46 0 -78.5 -32.5t-32.5 -78.5t32.5 -78.5t78.5 -32.5t78.5 32.5t32.5 78.5t-32.5 78.5t-78.5 32.5zM572 534q-59 0 -101 41.5t-42 101t42 101.5t101 42t101 -42t42 -101.5
t-42 -101t-101 -41.5zM572 788q-46 0 -78.5 -32.5t-32.5 -78.5t32.5 -78.5t78.5 -32.5t78.5 32.5t32.5 78t-32.5 78.5t-78.5 33zM996 50q-5 0 -8 2l-164 102q-8 5 -8 14v172q0 9 8 14l164 102q8 5 16 0.5t8 -14.5v-376q0 -9 -8 -14q-4 -2 -8 -2zM848 177l132 -82v318
l-132 -82v-154z" />
    <glyph glyph-name="uniE624" unicode="&#xe624;" 
d="M913 485l41 41l-221 222l-41 -41l55 -55l-79 -79l-103 102l-41 -41l46 -46l-407 -407v-1l-2 -193l-97 -97l35 -35l99 99l186 6l1 -1v1v0l407 407l52 -52l41 41l-106 106l79 79zM716 334l-86 87l-35 -35l86 -87l-40 -40l-87 87l-34 -35l86 -87l-49 -49l-86 87l-35 -35
l87 -86l-36 -36l-86 87l-35 -35l87 -86l-68 -69l-179 179l385 385l179 -178zM757 483l-67 68l73 73l68 -67zM757 483z" />
    <glyph glyph-name="uniE625" unicode="&#xe625;" 
d="M512 318l-132 132h264z" />
    <glyph glyph-name="uniE626" unicode="&#xe626;" 
d="M470 -42q-7 0 -12 5l-137 117q-6 5 -7 13t4.5 14t13.5 7t14 -5l105 -89v712l-199 -155q-5 -5 -12 -5h-86q-14 0 -24.5 -10t-10.5 -24v-320q0 -14 10.5 -24t24.5 -10h86q8 0 14 -6t6 -14t-6 -13.5t-14 -5.5h-86q-30 0 -51.5 21.5t-21.5 51.5v320q0 30 21.5 51.5t51.5 21.5
h79l225 176q10 8 21 2.5t11 -17.5v-794q0 -13 -11 -18q-4 -2 -9 -2zM698 -5q-13 0 -18 11q-3 7 -0.5 15t9.5 11q101 50 159.5 143.5t58.5 205.5t-58.5 206t-159.5 143q-7 4 -9.5 11.5t1 14.5t11 9.5t14.5 -0.5q116 -57 180 -164q59 -101 59 -220t-59 -220
q-64 -107 -180 -164q-4 -2 -8 -2zM596 161q-12 0 -18 11q-3 7 -0.5 15t9.5 11q54 26 84 74.5t30 108.5t-30 108.5t-84 74.5q-7 3 -9.5 11t1 15t11 9.5t14.5 -0.5q66 -32 102 -93q34 -57 34 -124.5t-34 -125.5q-36 -61 -102 -93q-4 -2 -8 -2z" />
    <glyph glyph-name="uniE627" unicode="&#xe627;" 
d="M374 289l138 138l138 -138h53l-191 190l-191 -190h53z" />
    <glyph glyph-name="uniE628" unicode="&#xe628;" 
d="M320 320l46 -45l146 146l147 -146l45 45l-192 192z" />
    <glyph glyph-name="uniE629" unicode="&#xe629;" 
d="M512 258l-251 252h502z" />
    <glyph glyph-name="uniE62A" unicode="&#xe62a;" 
d="M446 384l132 132v-264z" />
    <glyph glyph-name="uniE62B" unicode="&#xe62b;" 
d="M587 384l-150 -150v300z" />
    <glyph glyph-name="uniE62C" unicode="&#xe62c;" 
d="M666 394l-238 238l-29 -30l208 -208l-208 -209l29 -30l209 209z" />
    <glyph glyph-name="uniE62D" unicode="&#xe62d;" 
d="M576 192l45 46l-146 146l146 147l-45 45l-192 -192z" />
    <glyph glyph-name="uniE62E" unicode="&#xe62e;" 
d="M941 388l-417 374q-5 5 -12 5t-12 -5l-417 -374q-9 -8 -5 -19.5t17 -11.5h85v-218q0 -57 40 -97.5t97 -40.5h265q31 0 53.5 23t22.5 55v174q0 32 -22.5 55t-54.5 23h-138q-32 0 -54.5 -23t-22.5 -55v-112q0 -7 5 -12.5t12.5 -5.5t12.5 5.5t5 12.5v112q0 17 12.5 29.5
t29.5 12.5h138q17 0 29.5 -12.5t12.5 -29.5v-168q0 -17 -12 -29t-29 -13h-265q-39 0 -66.5 28t-27.5 68v218v42h-65l354 317l354 -317h-65v-259q-2 -39 -20 -61q-12 -15 -46 -36q-16 -8 -16 -21q0 -8 6.5 -14.5t15.5 -6.5q2 0 5 1q2 0 4 1t4 3q2 1 5 3q19 12 29.5 19.5
t24.5 22.5t21.5 37t9.5 51v218h85q13 0 17 11.5t-5 19.5z" />
    <glyph glyph-name="uniE62F" unicode="&#xe62f;" 
d="M852.5 194q-44.5 0 -76 31.5t-31.5 76t31.5 76t76 31.5t76 -31.5t31.5 -76t-31.5 -76t-76 -31.5zM511.5 194q-44.5 0 -76 31.5t-31.5 76t31.5 76t76 31.5t76 -31.5t31.5 -76t-31.5 -76t-76 -31.5zM170.5 194q-44.5 0 -76 31.5t-31.5 76t31.5 76t76 31.5t76 -31.5
t31.5 -76t-31.5 -76t-76 -31.5z" />
    <glyph glyph-name="uniE630" unicode="&#xe630;" 
d="M129 388q1 69 51 122q2 3 20 25q62 79 154 155q3 3 21 18t28 22q37 30 85 35q86 11 151 -49q9 -9 28.5 -24.5t22.5 -18.5q81 -69 149 -156q3 -4 11.5 -14t12.5 -16q40 -59 30 -131q-8 -54 -49 -98q-9 -9 -23.5 -27t-18.5 -23q-55 -63 -98 -101q-9 -8 -57 -48
q-28 -23 -33 -26q-58 -40 -130 -29q-56 8 -98 48q-2 2 -23 19q-69 53 -134 129q-26 31 -46 55q-21 25 -26 33q-28 42 -28 100zM448 320v-6v-145q0 -27 26 -28h76q7 0 12 5q14 15 14 36v133q0 5 5 5h144h7q9 1 15.5 7.5t7.5 15.5v80q0 9 -5 15q-8 10 -23 10h-146h-5v6v145
q0 28 -28 28h-72q-8 0 -14 -3q-14 -6 -14 -25v-45v-55v-46v-5h-6h-66h-40h-39q-28 0 -28 -27v-37v-37q0 -10 6 -17q7 -10 23 -10h144h6z" />
    <glyph glyph-name="uniE631" unicode="&#xe631;" 
d="M809 436q0 123 -88 210t-212.5 87t-212.5 -87t-88 -210q0 -69 30.5 -130t84.5 -103q-96 -48 -156 -137t-68 -197h45q8 102 69 185.5t154 119.5q74 -35 141 -35q68 0 130 30l31 18l25 16q53 42 84 103t31 130zM508 188q-104 0 -177.5 72.5t-73.5 175.5t73.5 176t178 73
t178 -73t73.5 -176q0 -104 -72 -176t-180 -72zM763 160l-1 -1q-8 8 -18 8q-28 0 -28 -21q0 -16 15 -24q118 -85 131 -253h55q-6 86 -46.5 162t-107.5 129z" />
    <glyph glyph-name="uniE632" unicode="&#xe632;" 
d="M512 -75q-144 0 -224 6.5t-112 16.5t-47 29q-20 26 -7 76q4 14 5 22q3 23 15.5 42.5t25.5 32t37 25t38.5 18.5t40.5 15q52 19 68 30q24 15 11 63q-52 47 -77 119q-37 24 -45 80q-8 60 27 92q12 117 76.5 182.5t167.5 65.5h1q102 0 166.5 -65.5t77.5 -182.5q34 -32 26 -92
q-7 -55 -44 -80q-26 -72 -78 -120q-12 -47 11 -62q17 -11 68 -30q14 -4 21 -7q13 -5 19 -18t1 -26t-18 -19t-26 -1q-7 2 -20 7q-59 22 -82 37q-47 30 -46 94q0 34 11 59q3 7 9 12q48 40 69 108q6 18 24 23q10 7 13 32q3 23 -5 33q-19 8 -20 29q-2 26 -7 50t-17.5 52.5
t-30.5 49t-50 34.5t-72 14h-1q-41 0 -72.5 -14t-50 -34.5t-31 -49t-17.5 -52.5t-7 -50q-1 -21 -20 -29q-8 -10 -5 -33q3 -25 14 -32q18 -5 23 -22q21 -69 69 -109q6 -5 9 -13q11 -24 12 -58q1 -64 -47 -94q-23 -15 -81 -37q-57 -20 -83.5 -36.5t-30.5 -42.5q-1 -11 -6 -29
q-3 -14 -4 -18q16 -10 72 -16q79 -8 256 -9q177 1 256 9q56 6 72 16q0 4 -4 18q-5 18 -6 29q-2 14 6.5 25t22.5 13t25 -6t13 -22q2 -8 5 -22q13 -50 -7 -76q-14 -19 -46 -29.5t-112 -16.5t-225 -6z" />
    <glyph glyph-name="uniE633" unicode="&#xe633;" 
d="M890 466h-209q-2 0 -15 -3v249q0 40 -28.5 68.5t-68.5 28.5h-406q-40 0 -68.5 -28.5t-28.5 -68.5v-745h176h249h124h51h291v433q0 27 -19.5 46.5t-47.5 19.5zM293 19v140h146v-140h-146zM615 19h-124v148q0 18 -13 30.5t-30 12.5h-163q-18 0 -30.5 -12.5t-12.5 -30.5
v-148h-125v693q0 19 13.5 32.5t32.5 13.5h406q19 0 32.5 -13.5t13.5 -32.5v-312v-381zM905 19h-239v108h171q10 0 17.5 7.5t7.5 18t-7.5 18t-17.5 7.5h-171v75h171q10 0 17.5 7.5t7.5 18t-7.5 18t-17.5 7.5h-171v96q0 6 4.5 10.5t10.5 4.5h209q6 0 10.5 -4.5t4.5 -10.5v-381
zM476 513h-84v85q0 10 -7.5 17.5t-18 7.5t-18 -7.5t-7.5 -17.5v-85h-85q-10 0 -17.5 -7.5t-7.5 -18t7.5 -18t17.5 -7.5h85v-84q0 -11 7.5 -18.5t18 -7.5t18 7.5t7.5 18.5v84h84q11 0 18.5 7.5t7.5 18t-7.5 18t-18.5 7.5z" />
    <glyph glyph-name="uniE634" unicode="&#xe634;" 
d="M652 387q49 34 77.5 87.5t28.5 115.5q0 101 -71 172.5t-171.5 71.5t-171.5 -71.5t-71 -172.5q0 -62 28 -114.5t76 -86.5q-116 -43 -189 -146t-73 -230q0 -23 3 -45q1 -13 11 -21.5t23 -8.5h4q14 1 22.5 12.5t7.5 25.5q-2 18 -2 37q0 99 53.5 180.5t140.5 121.5
q4 -39 38 -68.5t81 -32.5v-131q0 -32 22 -54t53 -22h5q6 -18 21.5 -29.5t35.5 -11.5q25 0 42.5 17.5t17.5 42.5t-17.5 42.5t-42.5 17.5q-20 0 -36 -12.5t-22 -31.5h-4q-17 0 -29 12t-12 29v132q45 6 80 33t39 65q86 -41 138 -121.5t52 -178.5q0 -19 -2 -37q-1 -14 7.5 -25.5
t22.5 -12.5h4q13 0 23 8.5t11 21.5q3 22 3 45q0 126 -71.5 228t-185.5 146zM634 52q11 0 18.5 -7.5t7.5 -18.5t-7.5 -18.5t-18.5 -7.5t-18.5 7.5t-7.5 18.5t7.5 18.5t18.5 7.5zM341 589.5q0 72.5 51 124t123.5 51.5t123.5 -51.5t51 -124t-51 -124t-123.5 -51.5t-123.5 51.5
t-51 124zM617 323q0 -29 -33 -52.5t-75 -23.5q-39 0 -68 22.5t-29 53.5v5q48 16 100 17q54 -1 105 -18v-4z" />
    <glyph glyph-name="uniE635" unicode="&#xe635;" 
d="M102.5 15q-8.5 0 -14.5 6t-6 15v697q0 9 6 15t14.5 6t14.5 -6t6 -15v-697q0 -9 -6 -15t-14.5 -6zM530 -120q-3 0 -6 1l-428 135q-8 3 -12 10.5t-1.5 15.5t10 12t16.5 1l427 -135q8 -3 12 -10.5t1 -15.5q-4 -14 -19 -14zM529.5 -120q-8.5 0 -14.5 6t-6 14v698q0 8 6 14
t14.5 6t14.5 -6t6 -14v-698q0 -8 -6 -14t-14.5 -6zM530 577q-3 0 -6 1l-428 136q-8 2 -12 9.5t-1.5 16t10 12t16.5 1.5l427 -136q8 -2 12 -9.5t1 -15.5q-4 -15 -19 -15zM953.5 18q-8.5 0 -14.5 6t-6 14v698q0 9 6 15t14.5 6t14.5 -6t6 -15v-698q0 -8 -6 -14t-14.5 -6z
M538 -118q-15 0 -19 15q-3 8 1 15.5t12 9.5l416 136q8 2 15.5 -1.5t10 -11.5t-1.5 -15.5t-12 -10.5l-415 -136q-4 -1 -7 -1zM538 580q-15 0 -19 14q-3 8 1 16t12 10l416 136q8 2 15.5 -1.5t10 -12t-1.5 -16t-12 -9.5l-415 -136q-4 -1 -7 -1zM418 413q-3 0 -6 1l-201 62
q-8 2 -12 9.5t-1.5 15.5t10 12t15.5 2l201 -62q8 -2 12 -9.5t2 -15.5q-5 -15 -20 -15zM418 264q-3 0 -6 1l-201 61q-8 3 -12 10.5t-1.5 15.5t10 12t15.5 2l201 -62q8 -2 12 -9.5t2 -16.5q-5 -14 -20 -14zM418 120q-3 0 -6 1l-201 61q-8 3 -12 10.5t-1.5 15.5t10 12t15.5 1
l201 -61q8 -3 12 -10.5t2 -15.5q-5 -14 -20 -14zM645 405q-14 0 -19 13q-3 8 1 16t12 10l180 62q8 3 16 -1t10.5 -12t-1 -15.5t-11.5 -10.5l-181 -61q-3 -1 -7 -1zM645 255q-14 0 -19 14q-3 8 1 15.5t12 10.5l180 62q8 2 16 -1.5t10.5 -11.5t-1 -15.5t-11.5 -10.5l-181 -62
q-3 -1 -7 -1zM645 111q-14 0 -19 14q-3 8 1 15.5t12 10.5l180 61q8 3 16 -0.5t10.5 -11.5t-1 -16t-11.5 -10l-181 -62q-3 -1 -7 -1z" />
    <glyph glyph-name="uniE636" unicode="&#xe636;" 
d="M766 -48q-4 0 -7 1q-66 4 -140 42v1l-54 30q-46 25 -115.5 84t-100.5 89.5t-51 51.5l-11 12q-78 84 -134 176q-84 137 -78 233q5 72 58 115q57 45 107 39q53 -7 104 -76q2 -3 7 -9q47 -64 55 -95q14 -54 -34 -103l-1 -1q-9 -9 -10 -28q0 -28 21 -65q29 -52 95 -114
q89 -85 147 -93q25 -3 36 6v1v-1v1q42 48 106 31q45 -12 111 -61q51 -39 64 -80q15 -45 -14 -96q-4 -6 -11.5 -8t-14 1.5t-8.5 11t1 14.5q21 36 12 66q-10 29 -52 61q-60 45 -97 55q-42 11 -69 -20q-15 -18 -47 -20q-76 -4 -190 103q-130 125 -127 210q2 34 22 53
q17 17 23.5 32t0.5 34t-16 35.5t-34 47.5l-6 9q-42 56 -79 61q-34 4 -78 -31q-41 -33 -45 -88q-5 -85 73 -212q60 -98 140 -181l2 -2q25 -26 57 -57t95 -84t104 -75l54 -31q67 -34 124 -38q16 -1 33 2q6 1 20 4q58 11 101 12q7 1 13 -4.5t6 -13t-5 -13.5t-13 -6
q-40 -2 -95 -12q-14 -3 -20 -4q-17 -3 -35 -3z" />
    <glyph glyph-name="uniE637" unicode="&#xe637;" 
d="M951 430q0 8 -5.5 13t-13 5t-12.5 -5t-5 -13v-327q0 -18 -12.5 -30t-29.5 -12h-722q-17 0 -29.5 12t-12.5 30v549q0 17 12.5 29.5t29.5 12.5h722q5 0 12 -2l-372 -336l-230 193q-8 7 -16.5 7t-14.5 -6t-6 -14.5t6 -14.5l240 -202l2 -3q2 -3 3 -4q9 -9 20 -6q8 1 13 6
q2 2 3 4l4 5l74 67l331 299q-11 21 -30 33.5t-42 12.5h-716q-34 0 -57.5 -25t-23.5 -59v-546q0 -34 23.5 -59t57.5 -25h716q34 0 57.5 25t23.5 59v232v0v95zM951 430z" />
    <glyph glyph-name="uniE638" unicode="&#xe638;" 
d="M512 -32q-13 0 -23 9l-96 96q-9 10 -9 23t9.5 22.5t22.5 9.5t23 -9l73 -74l73 74q10 9 23 9h224q13 0 22.5 9.5t9.5 22.5v512q0 13 -9.5 22.5t-22.5 9.5h-640q-13 0 -22.5 -9.5t-9.5 -22.5v-512q0 -13 9.5 -22.5t22.5 -9.5h96q13 0 22.5 -9.5t9.5 -22.5t-9.5 -22.5
t-22.5 -9.5h-96q-40 0 -68 28t-28 68v512q0 40 28 68t68 28h640q40 0 68 -28t28 -68v-512q0 -40 -28 -68t-68 -28h-211l-86 -87q-10 -9 -23 -9zM336 384q-20 0 -34 14t-14 34t14 34t34 14t34 -14t14 -34t-14 -34t-34 -14zM528 384q-20 0 -34 14t-14 34t14 34t34 14t34 -14
t14 -34t-14 -34t-34 -14zM720 384q-20 0 -34 14t-14 34t14 34t34 14t34 -14t14 -34t-14 -34t-34 -14z" />
    <glyph glyph-name="uniE639" unicode="&#xe639;" 
d="M859 347q8 0 13 5.5t5 12.5v243q0 22 -12 40l-1 1v1l-1 1l-1 1q-22 27 -56 27h-588q-30 0 -50.5 -21t-20.5 -50v-431q0 -29 20.5 -50t50.5 -21h588q30 0 50.5 21t20.5 50v59q0 8 -5 13.5t-13 5.5t-13.5 -5.5t-5.5 -13.5v-55q0 -16 -11 -27t-26 -11h-582q-15 0 -26 11
t-11 27v423q0 2 1 6l327 -267q4 -3 9 -3h3h3q6 0 10 3l303 264v-1v-2v-239q0 -7 5.5 -12.5t13.5 -5.5v0zM221 642h582q7 0 14 -3l-293 -256l-313 257q5 2 10 2v0z" />
    <glyph glyph-name="uniE63A" unicode="&#xe63a;" 
d="M765 660h-508q-34 0 -58 -24t-24 -58v-303q0 -34 24 -58t58 -24h246l122 -121q6 -6 14.5 -6t14.5 6t6 14.5t-6 14.5l-128 127h-1q0 1 -1 1v1h-1h-1l-1 1l-1 1h-1h-1v1h-2q-1 0 -2 1h-1h-1h-1h-254q-17 0 -29 12t-12 29v303q0 17 12 29t29 12h508q17 0 29 -12t12 -29v-303
q0 -17 -12 -29t-29 -12h-105q-9 0 -15 -6t-6 -14.5t6 -14.5t15 -6h105q34 0 58 24t24 58v303q0 34 -24 58t-58 24zM352 425zM321 425.5q0 12.5 9 21.5t21.5 9t21.5 -9t9 -21.5t-9 -21.5t-21.5 -9t-21.5 9t-9 21.5zM511 425zM481 425.5q0 12.5 9 21.5t21.5 9t21.5 -9t9 -21.5
t-9 -21.5t-21.5 -9t-21.5 9t-9 21.5zM669 425zM638 425.5q0 12.5 9 21.5t22 9t22 -9t9 -21.5t-9 -21.5t-22 -9t-22 9t-9 21.5z" />
    <glyph glyph-name="uniE63B" unicode="&#xe63b;" 
d="M512 -212q-16 0 -44 26.5t-54.5 60t-55 74.5t-41.5 61t-18 28q-24 38 -47 79.5t-51.5 100t-46.5 116.5t-18 102q0 102 50.5 188.5t137 137t188.5 50.5q115 0 210 -64q6 -4 7.5 -11.5t-3 -14t-12 -8t-13.5 3.5q-85 57 -189 57q-92 0 -170 -45.5t-123.5 -123.5t-45.5 -170
q0 -68 46.5 -174t106 -198t114 -162t73.5 -77q20 6 75 76.5t113.5 163.5t104 199.5t45.5 171.5q0 96 -50 177q-4 7 -2 14.5t8.5 11.5t14 2t11.5 -8q55 -91 55 -197q0 -44 -17.5 -102.5t-45.5 -117t-51 -99.5t-46 -79q-12 -20 -30 -46.5t-56 -80t-73.5 -88.5t-56.5 -35z
M512 280q-77 0 -131.5 54t-54.5 131t54.5 131.5t131.5 54.5t131.5 -54.5t54.5 -131.5t-54.5 -131t-131.5 -54zM512 614q-62 0 -105.5 -43.5t-43.5 -105t43.5 -105.5t105.5 -44t105.5 44t43.5 105.5t-43.5 105t-105.5 43.5z" />
    <glyph glyph-name="uniE63C" unicode="&#xe63c;" 
d="M628 529q0 49 -34 83t-82 34t-82 -34t-34 -83t34 -83t82 -34t82 34t34 83zM587 529q0 -31 -22 -53.5t-53 -22.5t-52.5 22.5t-21.5 53.5t21.5 53.5t52.5 22.5t53 -22t22 -54zM487 87q9 -14 25 -14t25 14l12 17q38 56 62.5 94.5t63.5 105.5t59.5 124.5t20.5 100.5
q0 102 -71 174t-171.5 72t-171.5 -72t-71 -174q0 -43 20.5 -100.5t59 -124.5t63 -105t62.5 -94zM310 529q0 85 59.5 145t142.5 60t142.5 -60t59.5 -145q0 -38 -20.5 -93t-58.5 -119.5t-61.5 -101t-57.5 -87.5l-4 -5l-3 5q-35 51 -58.5 87.5t-61.5 101t-58.5 119.5t-20.5 93z
M624 147q-12 2 -12 -12q0 -5 2.5 -8.5t4.5 -3.5l3 -1q29 -10 44.5 -22t15.5 -22t-20.5 -21t-61 -19t-88.5 -8t-88.5 8t-61 19t-20.5 21t15.5 22t44.5 22q10 1 10 14q0 6 -3 9t-6 2h-3q-115 -26 -115 -69q0 -36 65.5 -60.5t161 -24.5t161.5 24.5t66 60.5q0 43 -115 69z" />
    <glyph glyph-name="uniE63D" unicode="&#xe63d;" 
d="M814 774h-69q-9 0 -14.5 -6t-5.5 -14q0 -9 6 -15t14 -6q1 0 1 1h47q26 0 44 -18t18 -44v-593q0 -26 -18 -44t-44 -18h-562q-26 0 -44 18t-18 44v593q0 26 18 44t44 18h37q0 -1 0.5 -1t0.5 1h1q8 0 13.5 6t5.5 14t-5.5 14t-13.5 6h-60q-34 0 -58 -24t-24 -57v-635
q0 -34 24 -58t58 -24h604q34 0 58 24t24 58v635q0 33 -24 57t-58 24zM607 754q0 -8 -6 -14t-14 -6h-154q-8 0 -14 6t-6 14t6 14t14 6h154q8 0 14 -6t6 -14zM373 681q0 -9 -6 -15t-14 -6q-9 0 -15 6t-6 15v122q0 9 6 15t15 6q8 0 14 -6t6 -15v-122zM685 681q0 -9 -6 -15
t-14 -6q-9 0 -15 6t-6 15v122q0 9 6 15t15 6q8 0 14 -6t6 -15v-122zM624 359q36 42 36 97q0 62 -44 106t-106 44t-106 -44t-44 -106q0 -55 36 -97q-76 -34 -123 -104t-47 -156v-1h32v1q0 80 45.5 144.5t118.5 91.5q39 -29 88 -29t88 29q73 -27 118.5 -91.5t45.5 -144.5v-1
h32v1q0 86 -47 156t-123 104zM396 455.5q0 47.5 33.5 81t80.5 33.5t80.5 -33.5t33.5 -81t-33.5 -80.5t-80.5 -33t-80.5 33t-33.5 80.5z" />
    <glyph glyph-name="uniE63E" unicode="&#xe63e;" 
d="M923 453q0 50 -35.5 85.5t-86 35.5t-86 -35.5t-35.5 -85.5q0 -45 29 -79t74 -41h2l-1 -206v-2q0 -86 -60 -146t-146 -60q-83 0 -143.5 59t-61.5 143v208h2q92 9 157 75.5t71 158.5v3v9q1 2 1 3l-1 219v3q0 9 -6.5 15.5t-16.5 6.5h-108q-10 0 -16.5 -6.5t-6.5 -16t6.5 -16
t16.5 -6.5h87l-1 -197v-1v-1q0 -85 -60 -145.5t-146 -60.5q-83 0 -143.5 59.5t-61.5 143.5v202h86q9 0 16 6.5t7 16t-7 16t-16 6.5h-109q-8 0 -14.5 -5.5t-7.5 -13.5v-2v-1v-1v-225q0 -95 64 -165.5t160 -79.5l2 -1v-207q0 -104 72.5 -176t177.5 -72q100 0 172.5 68.5
t78.5 167.5q1 2 1 4v9v3v210h1q41 10 66.5 43t25.5 75zM801.5 375q-32.5 0 -55 23t-22.5 55t22.5 54.5t55 22.5t55 -22.5t22.5 -54.5t-22.5 -55t-55 -23z" />
    <glyph glyph-name="uniE63F" unicode="&#xe63f;" 
d="M350 10q-14 0 -27 2h-2q-20 3 -41 12t-43 24t-36 40t-14 54l-5 49q-3 5 -11.5 20t-21.5 37.5t-19 33.5q-17 31 -2 57q12 20 34 20q18 0 35 -15l1 -1q21 -23 46 -68q4 -7 5 -10v1q-48 121 -30 152q12 20 30 27l20 8v-22q1 -48 9 -75q12 -42 18 -42q3 0 16 5l1 1l21 19
l5 -27v-1v22q3 71 9 100l9 40l19 -37q3 -7 12 -24q33 -69 46 -85l4 -5l-1 -6l-3 -15q1 2 3 5.5t3 4.5l3 7l8 1q13 2 18 15l3 9l9 1q23 2 70 15l25 7l-7 -25q-2 -11 -8 -28q-6 -16 -17 -36l-2 -3l-3 -2q-19 -14 -21 -19q-3 -6 -2 -12l1 -6l-4 -5l-12 -18q-22 -30 -24 -37
q0 -1 1 -2q13 0 49 24q28 18 49 18q27 0 38 -23q11 -24 -2 -42q-1 0 -4 -6q-9 -13 -17 -23t-27 -28t-50 -35t-71 -31q-37 -17 -93 -17zM326 41q11 -1 24 -1q47 0 81 14h1q107 37 151 106q4 7 5 9q2 5 -2 11q-3 5 -10 5q-13 0 -32 -13q-44 -29 -66 -29q-23 0 -31 27
q-2 9 4 20.5t26 39.5q1 1 4 5.5t5 6.5q-1 12 5 24q6 11 28 28q9 16 14 29v1q-23 -6 -41 -9q-10 -18 -29 -24q-3 -5 -5 -8l-3 -5q-16 -29 -31 -29q-17 0 -21 24q-2 8 3 41q-12 19 -35 65q-1 -13 -2 -47q-1 -32 -2 -43q-4 -35 -28 -35q-10 0 -18 8q-10 11 -9 26q-10 -3 -16 -3
q-17 0 -29 17q4 -10 10 -26l1 -2v-1q4 -20 -5 -30q-8 -9 -20 -9q-15 0 -24 10q-3 3 -11 17q-23 41 -42 62q-7 7 -14 7q-5 0 -9 -6q-6 -12 3 -27l54 -95l1 -2l6 -56v-1q-1 -22 10 -40.5t24.5 -29t32 -18.5t27 -10.5t15.5 -3.5zM657 139q-24 0 -36 19q-13 20 0 47l1 1
q16 27 50 64q2 1 4.5 4t3.5 4q-93 -75 -129 -75q-4 0 -7 1q-30 7 -41 30q-9 20 1 41q7 15 40.5 37t65.5 38q-11 -3 -21 -6q-81 -22 -109 -22q-13 0 -22 3q-16 6 -26 19.5t-10 29.5q-1 32 27 44q19 9 107 21q6 1 35 5q-28 6 -46.5 11t-38 12.5t-29.5 17.5t-11 23v2
q-1 28 9 39q13 13 50 13q10 0 18 -1q36 -1 113 -27q35 -11 43 -12l2 2q-3 12 -38 40q-43 35 -31 68q4 13 16 20.5t24 7.5q6 0 10 -2q3 0 8 -2q88 -24 161 -122q33 -36 50 -110v-2q4 -17 0.5 -42.5t-10.5 -49.5t-27 -45t-48 -30h-3q-1 0 -6.5 -1.5t-16 -6t-18.5 -10.5
q-12 -9 -43 -45q-18 -20 -29 -33q-19 -20 -43 -20zM647 192q-5 -12 -1 -18q3 -5 11 -5q11 0 21 11q12 13 29 32q32 37 47 48q22 18 54 24q26 8 41.5 29.5t18.5 42.5t5 40t-1 22q-7 29 -18.5 54t-17 32.5t-7.5 9.5l-2 2q-66 90 -145 112q-6 1 -10 3q-9 -1 -12 -9
q-5 -13 22 -35q50 -41 48 -66q0 -15 -17 -25q-6 -4 -13 -4q-11 0 -53 14q-73 24 -106 26h-7h-9q-25 0 -28 -4q-2 -1 -1 -17v-2q3 -16 105 -37l6 -1q35 -7 38 -24q2 -15 -18 -24q-8 -5 -67 -13q-84 -12 -99 -19q-10 -4 -10 -16q1 -16 17 -22q4 -1 12 -1q25 0 101 21
q33 9 42 10q9 2 13 2q27 0 29 -21q2 -10 -5.5 -20t-19.5 -13q-15 -4 -59.5 -31.5t-50.5 -37.5q-3 -8 0 -15q4 -10 21 -14q12 0 45 21t66 48l1 1l2 1q11 5 20 5q14 0 21 -11q10 -16 1 -33q-2 -3 -13 -16q-32 -33 -47 -57zM305 291q-18 0 -28 15.5t-19 46.5q-10 37 -10 117
q0 37 -2 44l-2 2q-10 -6 -26 -49q-20 -51 -54 -51q-18 0 -31 14q-12 12 -11 26v7q-5 92 65 192q25 44 89 82l1 1q4 2 13.5 5.5t31.5 9t42 5.5q64 0 99 -48l28 -34q44 -21 99 -46q19 -9 28.5 -25.5t5.5 -32.5q-3 -17 -17.5 -25.5t-34.5 -6.5h-2q-31 7 -76 29l-10 5v-1
q11 -7 27 -18l32 -22l-39 -5q-10 -1 -11.5 -3.5t-0.5 -16.5v-2q4 -16 93 -34l13 -3l-1 -12q-1 -22 -14.5 -36t-32.5 -14h-8q-17 3 -50 29t-58 52q7 -11 20 -30q20 -29 29 -43l10 -17l-20 -5q-12 -3 -15 -5q-11 -4 -11 -16q1 -16 18 -22q2 -1 11 -1q7 0 14 1l24 2l-9 -22
q-6 -16 -19 -25.5t-29 -9.5q-20 0 -34 15t-53 95q-11 23 -16 31q8 -46 4.5 -87.5t-25.5 -50.5l-2 -1q-18 -6 -26 -6zM244 545q11 0 23 -9q7 -6 9 -19t2 -47q0 -76 9 -108q12 -42 18 -42q3 0 16 5l1 1q15 7 2 111l-1 6q-3 29 6 39q5 7 14 7t20 -11q7 -7 34 -60q13 -27 21 -43
q1 29 27 40q1 1 2 1q-5 8 -17 25q-24 35 -29 46q-6 16 4 31q8 13 21 13q12 0 20 -12q3 -5 17 -19v5v2q-2 28 9 39l-5 3l-2 1l-1 1q-18 18 -11 35q7 18 31 18q1 0 4 -1q4 0 19 -7q42 -20 69 -26q1 -1 4 -1q13 0 15 9q4 15 -17 25q-99 45 -102 47l-3 2l-34 40q-26 36 -75 36
q-36 0 -73 -17q-56 -34 -78 -71l-1 -2q-65 -92 -61 -173q1 -8 1 -11q0 -2 4 -5.5t8 -3.5q14 0 26 33q14 36 26.5 51.5t27.5 15.5zM506 463q31 -25 40 -26q1 -1 4 -1q10 0 15 10q-36 8 -59 17z" />
    <glyph glyph-name="uniE640" unicode="&#xe640;" 
d="M830 840h-635q-30 0 -52 -22t-22 -51v-760q0 -30 22 -50t52 -20h482h40h1l182 182v41v607q0 30 -20.5 51.5t-49.5 21.5zM716 -9v130h129zM699 161q-9 0 -16.5 -7t-7.5 -16v-162h-480q-13 0 -23 9t-10 22v760q0 13 10 22.5t23 9.5h635q12 0 20.5 -9.5t8.5 -22.5v-606h-160
zM712 283q0 -4 -4 -4h-391q-3 0 -3 4v34q0 3 3 3h391q4 0 4 -3v-34zM557 161q0 -3 -3 -3h-237q-3 0 -3 3v34q0 3 3 3h237q3 0 3 -3v-34zM561 544q23 13 36.5 35.5t13.5 49.5q0 40 -28.5 69t-69 29t-69.5 -29t-29 -69q0 -27 14 -49.5t36 -35.5q-54 -13 -95.5 -51.5
t-57.5 -91.5h39q19 48 63.5 80t98.5 32t98.5 -32t63.5 -80h39q-16 53 -57.5 91.5t-95.5 51.5zM513 571q-24 0 -40.5 17t-16.5 40.5t16.5 40.5t40.5 17t40.5 -17t16.5 -40.5t-16.5 -40.5t-40.5 -17z" />
    <glyph glyph-name="uniE641" unicode="&#xe641;" 
d="M283 294q8 0 12.5 6t4.5 14q-2 14 -16 16q-42 12 -68 47.5t-26 78.5q0 54 38.5 92.5t92.5 38.5q8 0 13.5 5.5t5.5 13t-5.5 13t-13.5 5.5q-69 0 -118.5 -49t-49.5 -119q0 -41 19 -77t51 -59q-83 -25 -124 -93.5t-33 -170.5q1 -7 6 -12t13 -5h1q8 1 13 7t4 13
q-9 103 38.5 164.5t141.5 70.5zM613 273q48 26 77.5 73.5t29.5 103.5q0 84 -59 143t-142 59t-142 -59t-59 -143q0 -57 29.5 -105t79.5 -73q-100 -31 -163.5 -116t-63.5 -192q0 -7 5.5 -12.5t13 -5.5t13 5.5t5.5 12.5q0 118 83.5 201.5t201.5 83.5t201.5 -83.5t83.5 -201.5
q0 -7 5.5 -12.5t13 -5.5t13 5.5t5.5 12.5q0 108 -65 193.5t-166 115.5zM354 450.5q0 67.5 48.5 116t116.5 48.5t116 -48.5t48 -116t-48 -116t-116 -48.5t-116.5 48.5t-48.5 116zM800 320q33 23 52 59.5t19 77.5q0 69 -49.5 118.5t-118.5 49.5q-8 0 -13.5 -5.5t-5.5 -13
t5.5 -13t13.5 -5.5q54 0 92.5 -38.5t38.5 -92.5q0 -44 -26.5 -79.5t-68.5 -47.5q-2 0 -4 -1q-10 -5 -11 -15q0 -8 4.5 -13.5t12.5 -6.5q94 -9 141.5 -70.5t38.5 -164.5q-1 -7 4 -13t13 -6h1q8 0 13 4.5t6 11.5q8 102 -33 171t-125 93z" />
    <glyph glyph-name="uniE642" unicode="&#xe642;" 
d="M869 771h-714q-29 0 -49.5 -20.5t-20.5 -49.5v-803q0 -29 20.5 -49.5t49.5 -20.5h714q29 0 49.5 20.5t20.5 49.5v803q0 29 -20.5 49.5t-49.5 20.5zM155 720h714q8 0 13.5 -5.5t5.5 -13.5v-599h-752v599q0 8 5.5 13.5t13.5 5.5zM869 -121h-714q-8 0 -13.5 5.5t-5.5 13.5
v153h752v-153q0 -8 -5.5 -13.5t-13.5 -5.5zM512 13q-20 0 -34 -14t-14 -34t14 -34t34 -14t34 14t14 34t-14 34t-34 14zM512.5 -39q-3.5 0 -3.5 3.5t3.5 3.5t3.5 -3.5t-3.5 -3.5z" />
    <glyph glyph-name="uniE643" unicode="&#xe643;" 
d="M744 -151h-464q-25 0 -43.5 18.5t-18.5 44.5v776q0 26 18.5 44.5t43.5 18.5h464q25 0 43.5 -18.5t18.5 -44.5v-776q0 -26 -18.5 -44.5t-43.5 -18.5zM280 720q-13 0 -22 -9.5t-9 -22.5v-776q0 -13 9 -22.5t22 -9.5h464q13 0 22 9.5t9 22.5v776q0 13 -9 22.5t-22 9.5h-464z
M512 -83q-17 0 -29 12t-12 28.5t12 28.5t29 12t29 -12t12 -28.5t-12 -28.5t-29 -12zM512 -32q-10 0 -10 -10q0 -6 5 -8t10 0t5 8q0 10 -10 10zM732 28h-443q-6 0 -10.5 4.5t-4.5 10.5v622q0 6 4.5 10.5t10.5 4.5h443q6 0 10.5 -4.5t4.5 -10.5v-622q0 -6 -4.5 -10.5
t-10.5 -4.5zM305 59h412v590h-412v-590z" />
    <glyph glyph-name="uniE644" unicode="&#xe644;" 
d="M883 790h-741q-27 0 -46 -19t-19 -45v-535q0 -27 19 -46t46 -19h306v-117h-100q-10 0 -17 -7t-7 -17t7 -16.5t17 -6.5h329q10 0 16.5 6.5t6.5 16.5t-6.5 17t-16.5 7h-100v117h306q26 0 45 19t19 46v535q0 26 -19 45t-45 19zM142 743h741q7 0 12 -5t5 -12v-429h-776v429
q0 7 5.5 12t12.5 5zM530 9h-35v117h35v-117zM883 173h-741q-7 0 -12.5 5.5t-5.5 12.5v59h776v-59q0 -7 -5 -12.5t-12 -5.5z" />
    <glyph glyph-name="uniE645" unicode="&#xe645;" 
d="M827 616q-85 85 -200.5 115.5t-230.5 0t-201 -115.5q-64 -65 -97.5 -148.5t-33.5 -168t33.5 -168t98 -148t148 -97.5t168 -33t168 33t147.5 98q86 85 116.5 200.5t0 230.5t-116.5 201zM229 17q-58 57 -88 132t-30 150.5t30 150.5t88 132q76 77 179 104t206 0t180 -103.5
t104 -179.5t0 -206t-104 -180q-57 -57 -132 -87t-150.5 -30t-150.5 30t-132 87zM653 203l-96 97l96 96q6 8 4 20t-9.5 19.5t-19.5 9.5t-19 -4l-97 -97l-97 98q-8 6 -20 3.5t-19 -9.5t-9.5 -19t4.5 -20l97 -97l-98 -98q-6 -7 -4 -19t9.5 -19.5t19.5 -9.5t20 4l97 97l97 -96
q7 -7 19 -4.5t19.5 10t10 19.5t-4.5 19zM653 203z" />
    <glyph glyph-name="uniE646" unicode="&#xe646;" 
d="M134 279zM876 202zM159 202zM850 100zM185 100zM518 -28zM518 305zM697 -28zM697 305zM459 51q-18 0 -30 12l-275 275q-12 12 -12 30t12 31l385 384q17 17 44 17q6 0 12 -1l206 -47q14 -4 26 -16t16 -26l47 -206q3 -14 -1.5 -30t-14.5 -27l-384 -384q-13 -12 -31 -12z
M185 368l274 -274v0l384 384q7 7 5 16l-47 206q-1 3 -4 6t-6 4l-206 47h-2q-9 0 -14 -5zM690.5 655.5q11.5 11.5 28 11.5t28 -11.5t11.5 -28t-11.5 -28t-28 -11.5t-28 11.5t-11.5 28t11.5 28zM459.5 -54q-13.5 0 -23.5 9l-289 290l15 15l290 -289q7 -8 15 0l399 399l15 -15
l-399 -400q-9 -9 -22.5 -9z" />
    <glyph glyph-name="uniE647" unicode="&#xe647;" 
d="M823 164l-243 240l229 229q15 16 15 37t-15 35q-15 15 -36.5 15t-35.5 -15l-228 -229l-217 219q-16 15 -37 15t-35 -15q-15 -16 -15 -37t15 -35l217 -217l-230 -230q-16 -16 -16 -37t16 -35q15 -15 36 -15t35 15l231 229l240 -241q16 -15 37 -15t35 15q15 14 15.5 35.5
t-13.5 36.5z" />
    <glyph glyph-name="uniE648" unicode="&#xe648;" 
d="M512 448l-192 192l-64 -64l192 -192l-192 -192l64 -64l192 192l192 -192l64 64l-192 192l192 192l-64 64z" />
    <glyph glyph-name="uniE649" unicode="&#xe649;" 
d="M949 -66l-221 222q-1 1 -3 2q76 99 76 223q0 100 -49.5 185t-134.5 134t-185 49t-184.5 -49t-134 -134t-49.5 -185t49.5 -185t134 -134t184.5 -49q125 0 224 75l2 -2l221 -221q12 -13 31 -11t33.5 16.5t16 33t-10.5 30.5zM105 381q0 89 44 164.5t119 119t164 43.5
t164.5 -43.5t119.5 -119t44 -164.5q0 -133 -93 -228l-3 -3q-2 -2 -3 -4q-96 -92 -229 -92q-89 0 -164 43.5t-119 119t-44 164.5z" />
    <glyph glyph-name="uniE64A" unicode="&#xe64a;" 
d="M750 55q77 72 105.5 177t0.5 212q-28 103 -99 177.5t-167.5 103t-193.5 2.5q-73 -20 -131.5 -67.5t-92 -111.5t-44.5 -141t12 -155q27 -103 98.5 -177t167.5 -102.5t193 -2.5q13 3 19.5 15t3 26t-15.5 21t-25 4q-80 -22 -159.5 1.5t-138 85t-81.5 146.5q-18 64 -9 127.5
t36.5 116.5t76 92.5t108.5 55.5q80 21 159.5 -2.5t138.5 -85t81 -146.5q26 -93 -1.5 -183.5t-98.5 -149.5q-10 -9 -11 -23q-9 -10 -8.5 -23.5t10.5 -22.5l156 -157q10 -10 24.5 -10t24.5 10t10 24.5t-11 24.5z" />
    <glyph glyph-name="uniE64B" unicode="&#xe64b;" 
d="M640 254q33 48 33 106q0 77 -54.5 131.5t-132 54.5t-132 -54.5t-54.5 -132t54.5 -132t131.5 -54.5q59 0 106 33l80 -80q10 -10 24 -10t24 10t10 24t-10 24zM486.5 241q-49.5 0 -84 34.5t-34.5 84t34.5 84t84 34.5t84 -34.5t34.5 -84t-34.5 -84t-84 -34.5zM512 783
q-98 0 -187.5 -38t-154.5 -102.5t-103 -154t-38 -188t38 -188t103 -154t154.5 -103t187.5 -38.5t187.5 38.5t154.5 103t103 154t38 188t-38 188t-103 154t-154.5 102.5t-187.5 38zM512 -115q-113 0 -208.5 55.5t-151 151t-55.5 208.5t55.5 208.5t151 151.5t208.5 56
t208.5 -56t151 -151.5t55.5 -208.5t-55.5 -208.5t-151 -151t-208.5 -55.5z" />
    <glyph glyph-name="uniE64C" unicode="&#xe64c;" horiz-adv-x="1073" 
d="M539.5 -91q-94.5 0 -161.5 5.5t-99 12.5t-49.5 18t-20 16.5t-2.5 14.5v369l-36 -19l-159 253l309 166h109v-29q0 -43 29.5 -74t71 -31t71 31t29.5 74v29h127l307 -165l-132 -252l-61 23v-375q0 -9 -2.5 -14.5t-20 -16.5t-49.5 -18t-99 -12.5t-161.5 -5.5zM264 -11
q26 -9 99 -16t176.5 -7t176.5 7t99 16v444l91 -34l83 158l-245 131h-59q-10 -57 -53.5 -95t-101 -38t-101.5 38t-53 95h-41l-243 -130l99 -158l73 39v-450z" />
    <glyph glyph-name="uniE64D" unicode="&#xe64d;" 
d="M949 377l-440 411l-441 -410q-6 -6 -6.5 -15t5.5 -15.5t15 -6.5t15 6l412 383l411 -384q6 -6 14 -6q10 0 16 7q6 6 6 15t-7 15zM949 377zM815 368q-9 0 -15.5 -6t-6.5 -15v-327h-170v227h-228v-227h-171v327q0 9 -6 15t-15 6t-15.5 -6t-6.5 -15v-370h257v228h142v-228
h256v370q0 9 -6 15t-15 6zM815 368zM665 674h128v-114q0 -9 6.5 -15t15.5 -6t15 6t6 15v157h-171q-9 0 -15 -6.5t-6 -15.5t6 -15t15 -6zM665 674z" />
    <glyph glyph-name="uniE64E" unicode="&#xe64e;" 
d="M512 394zM476 394q0 15 10.5 25.5t25.5 10.5t25.5 -10.5t10.5 -25.5t-10.5 -25.5t-25.5 -10.5t-25.5 10.5t-10.5 25.5zM512 539zM476 539q0 15 10.5 25.5t25.5 10.5t25.5 -10.5t10.5 -25.5t-10.5 -26t-25.5 -11t-25.5 11t-10.5 26zM967 542l-272 282q-1 0 -1 1h-1l-1 1v0
h-1l-1 1v0q-1 1 -2 1t-1.5 0.5l-0.5 0.5h-1h-1h-1h-1h-1h-1h-2q-1 0 -2 -1v0h-2q-1 -1 -1.5 -1t-0.5 -1h-1h-1v-1q-1 0 -1 -1h-1q0 -1 -1 -1v-1h-1v-2v0l-1 -1q-19 -39 -62.5 -69t-90.5 -31q-47 1 -90.5 31t-62.5 69l-1 1v0v2h-1h-1v1l-1 1v0l-1 1v1h-2l-1 1l-1 1h-2h-2v1
h-2h-2h-1h-1h-1h-1q-1 0 -1 -0.5t-1 -0.5h-1l-1 -1v0q-1 0 -1 -1h-1v0q-1 -1 -2 -1v0l-1 -1l-272 -282q-12 -13 -1 -26l129 -164q5 -6 12.5 -7t13.5 4l59 50l-57 -423q-1 -9 4.5 -15.5t14.5 -6.5h280h280q8 0 13.5 6.5t4.5 15.5l-56 423l58 -50q6 -5 14 -4t13 7l129 164
q11 13 -1 26zM202 391l-107 136l23 24l110 -138zM740 459q-9 9 -20.5 2.5t-9.5 -19.5l60 -450h-258h-259l61 450q1 13 -10 19.5t-21 -2.5l-26 -22l-112 141l194 201q25 -37 65 -63q52 -35 108 -36v0v0q56 1 108 36q40 26 65 63l194 -201l-112 -141zM822 391l-26 22l110 138
l23 -24z" />
    <glyph glyph-name="uniE64F" unicode="&#xe64f;" 
d="M297 556q-6 -14 -6 -30q0 -34 25 -58.5t59.5 -24.5t59 24.5t24.5 59t-24.5 59t-59.5 24.5q-16 0 -30 -5l-124 124q-10 11 -24.5 11t-24.5 -10.5t-10 -24.5t10 -24zM933 418l-381 381q-36 35 -86 35t-86 -35l-48 -49q-8 -9 -8 -22t9.5 -22.5t22.5 -9.5q12 0 21 8h1l48 49
q17 16 40 16t40 -16l380 -381q17 -16 17 -39.5t-17 -39.5l-277 -278q-17 -16 -40 -16t-39 16l-381 381q-17 16 -17 39.5t17 39.5l49 49h-1q8 9 8 22t-9.5 22.5t-22.5 9.5q-12 0 -21 -8h-1l-48 -49q-36 -35 -36 -85.5t36 -85.5l380 -381q36 -35 86 -35t86 35l277 278
q36 35 36 85.5t-35 85.5z" />
    <glyph glyph-name="uniE650" unicode="&#xe650;" 
d="M889 502q-28 68 -74.5 123t-105 90t-125 52.5t-138 13t-138.5 -32.5t-121.5 -75t-89.5 -106t-52.5 -126t-12.5 -139t32 -139q3 -6 11 -24q2 -10 6 -21l81 -199q17 -41 58 -58.5t82 -0.5t58 58t0 83l-81 199q-17 41 -57.5 58.5t-81.5 0.5q-35 -14 -53 -49
q-25 75 -17.5 152.5t37.5 144.5t86 122t129 85t151 30t147 -26t127 -77.5t94 -121.5q-39 13 -75 -2q-41 -17 -58 -58t-1 -83l81 -199q16 -38 52.5 -55.5t75.5 -7.5q-21 -126 -133 -221q-6 14 -16 21t-19 3l-70 -28q-8 -4 -10 -16.5t3.5 -27t16 -22t18.5 -3.5l70 29
q17 6 9 35q55 27 95 65.5t61.5 80t31.5 77t14 72.5q16 40 -1 80l-81 199q0 1 -1.5 3.5t-1.5 3.5q-7 21 -13 37zM194 176q-4 10 0 19.5t13 13t18.5 0t13.5 -13.5l87 -214q3 -9 -1 -18.5t-13 -13.5t-18.5 0t-13.5 14zM868 204q4 -9 0 -18.5t-13 -13.5t-18.5 0t-13.5 14
l-87 213q-3 10 0.5 19.5t13 13t19 -0.5t12.5 -13z" />
    <glyph glyph-name="uniE651" unicode="&#xe651;" horiz-adv-x="1449" 
d="M846 -86q-23 0 -38 16.5t-40 33.5t-46 17t-46 -17t-39 -33q-15 -16 -38 -16q-11 0 -20 4l-1 1l-100 56h-1q-14 10 -18.5 26.5t2.5 32.5q9 18 9 40q0 44 -31 75.5t-75 31.5h-3h-1q-13 0 -22.5 10t-12.5 28q-8 46 -8 79.5t8 80.5q4 17 13.5 27.5t22.5 10.5h3q44 0 75 31
t31 75q0 24 -9 41q-7 15 -2.5 31.5t18.5 26.5l1 1l106 58h1q9 4 19 4q23 0 38 -16q15 -15 39 -31t45 -16t45 15.5t39 30.5q14 16 38 16q10 0 19 -4l1 -1l102 -56l1 -1q14 -10 18.5 -26.5t-2.5 -31.5q-9 -19 -9 -41q0 -44 31 -75t75 -31h4q12 0 22 -10.5t13 -27.5
q9 -47 9 -80.5t-9 -79.5q-3 -18 -13 -28.5t-22 -9.5h-4q-44 0 -75 -31.5t-31 -75.5q0 -18 9 -40q7 -16 2.5 -32.5t-18.5 -26.5h-1l-103 -58h-1q-9 -4 -20 -4zM843 -37q1 -1 3 -1l97 54q-13 30 -13 59q0 62 42.5 106.5t103.5 48.5q8 41 8 70q0 28 -8 70q-61 3 -103.5 47.5
t-42.5 106.5q0 29 13 60l-95 53q-3 0 -4 -1q-15 -15 -35 -30q-45 -31 -83 -31t-83 32q-21 15 -35 30q-2 1 -4 1l-99 -54q13 -31 13 -60q0 -62 -42.5 -106.5t-103.5 -47.5q-7 -41 -7 -70q0 -30 7 -70q61 -4 103.5 -48.5t42.5 -106.5q0 -29 -13 -59l93 -53h1q2 0 3 1
q15 17 35 32q46 33 85 33q40 0 85 -34q21 -16 36 -32zM722 159q-58 0 -99.5 41.5t-41.5 100t41.5 100t100 41.5t99.5 -41.5t41 -100t-41 -100t-100 -41.5zM722 394q-38 0 -65.5 -27.5t-27.5 -66t27.5 -66t66 -27.5t65.5 27.5t27 66t-27 66t-66 27.5zM722 394z" />
    <glyph glyph-name="uniE652" unicode="&#xe652;" 
d="M298.5 139q-61.5 0 -105.5 -43.5t-44 -105.5t44 -105.5t105.5 -43.5t105 43.5t43.5 105.5t-43.5 105.5t-105 43.5zM391 -29l-30 -52q-11 -19 -33 -19h-60q-22 0 -32 19l-30 52q-6 9 -6 19t6 19l30 52q10 19 32 19h60q22 0 33 -19l30 -52q11 -19 0 -38zM718 499l-112 205
q-17 32 -53 32h-239q-34 0 -51 -29l-127 -207q-18 -30 0 -61l119 -206q17 -30 51 -30h240q34 0 51 30l120 207q17 30 1 59zM426.5 264q-80.5 0 -138 57t-57.5 138t57.5 138t138 57t138 -57t57.5 -138t-57.5 -138t-138 -57zM682 37.5q0 28.5 18 50.5t45 27v55
q-50 -5 -84.5 -43t-34.5 -89.5t34.5 -89t84.5 -43.5v56q-27 5 -45 26.5t-18 50zM775 171v-56q28 -5 46 -27t18 -50.5t-18 -50t-46 -26.5v-56q51 6 85.5 43.5t34.5 89t-34.5 89.5t-85.5 44z" />
    <glyph glyph-name="uniE653" unicode="&#xe653;" 
d="M895 -63h-569q-26 0 -44.5 18.5t-18.5 44.5v769q0 25 18.5 43.5t44.5 18.5h569q26 0 44.5 -18.5t18.5 -43.5v-769q0 -26 -18.5 -44.5t-44.5 -18.5zM326 792q-10 0 -17 -7t-7 -16v-769q0 -10 7 -17t17 -7h569q10 0 17 7t7 17v769q0 9 -7 16t-17 7h-569zM744 365h-267
q-8 0 -14 5.5t-6 13.5t6 14t14 6h267q8 0 13.5 -6t5.5 -14t-5.5 -13.5t-13.5 -5.5zM744 491h-267q-8 0 -14 5.5t-6 13.5t6 14t14 6h267q8 0 13.5 -6t5.5 -14t-5.5 -13.5t-13.5 -5.5zM744 239h-267q-8 0 -14 5.5t-6 13.5t6 14t14 6h267q8 0 13.5 -6t5.5 -14t-5.5 -13.5
t-13.5 -5.5zM400 -63h-273q-26 0 -44.5 18.5t-18.5 43.5v586q0 26 18.5 44t44.5 18h100q8 0 13.5 -5.5t5.5 -13.5t-5.5 -14t-13.5 -6h-100q-10 0 -17 -7t-7 -16v-586q0 -9 7 -16t17 -7h273q8 0 13.5 -6t5.5 -14t-5.5 -13.5t-13.5 -5.5z" />
    <glyph glyph-name="uniE654" unicode="&#xe654;" 
d="M589 462q-8 7 -17 14q-9 9 -23 9q-13 0 -22.5 -9.5t-9.5 -22.5q0 -12 7 -21v0q4 -5 8 -7q7 -6 9 -8l3 -3q24 -26 20 -63t-30 -63l-145 -145q-25 -25 -61 -25t-62 25l-2 3q-26 25 -26 61.5t26 61.5l64 64q13 10 13 28q0 14 -10.5 24.5t-25.5 10.5q-10 0 -19 -6h-1v-1
q-4 -2 -7 -6l-66 -62q-47 -47 -47 -113.5t47 -113.5l2 -3q47 -47 113.5 -47t113.5 47l145 145q47 47 49 111.5t-44 111.5zM797 674l-3 3q-46 47 -113 47t-114 -47l-144 -145q-47 -47 -48.5 -107.5t44.5 -107.5l3 -3q4 -4 9 -8q3 -3 7 -6v0q7 -4 16 -4q13 0 22 9t9 22
q0 7 -3 13t-17 20l-3 3q-24 27 -19 58.5t32 58.5l144 145q26 25 62 25t61 -25l3 -3q25 -25 25 -61.5t-25 -61.5l-64 -64q-14 -10 -14 -28q0 -15 10.5 -25t24.5 -10q10 0 19 5l1 1q4 3 8 7l67 62q47 47 47 113.5t-47 113.5zM797 674z" />
    <glyph glyph-name="uniE655" unicode="&#xe655;" 
d="M897 610q-35 61 -140 61q-40 0 -87 -9q-28 80 -69 126t-89 46t-89 -46t-69 -126q-47 9 -87 9q-105 0 -140 -61q-24 -44 -5.5 -102t74.5 -123q-56 -65 -74.5 -123t5.5 -102q35 -61 140 -61q40 0 87 9q28 -80 69 -126t89 -46t89 46t69 126q47 -9 87 -9q105 0 140 61
q24 44 5.5 102t-74.5 123q56 65 74.5 123t-5.5 102zM757 622q77 0 98 -37q15 -26 -1 -69.5t-59 -94.5q-40 40 -90 76q-7 62 -21 117q40 8 73 8zM587 254q-37 -22 -75 -40q-38 18 -75 40q-37 21 -72 46q-3 41 -3 85t3 85q35 25 72 46q37 22 75 40q38 -18 75 -40
q37 -21 72 -46q3 -41 3 -85t-3 -85q-35 -25 -72 -46zM651 235q-6 -35 -14 -68q-32 9 -66 22q21 11 40 22zM453 189q-34 -13 -66 -22q-8 33 -14 68l40 -24q19 -11 40 -22zM314 339q-28 22 -51 46q23 24 51 46q-1 -23 -1 -46t1 -46zM373 535q6 35 14 68q32 -9 66 -22
q-21 -11 -40 -22zM571 581q34 13 66 22q8 -33 14 -68l-40 24q-19 11 -40 22zM710 431q28 -22 51 -46q-23 -24 -51 -46q1 23 1 46t-1 46zM512 785q30 0 59 -36t51 -99q-53 -15 -110 -40q-57 25 -110 40q22 63 51 99t59 36zM169 585q21 37 98 37q33 0 73 -8q-14 -55 -21 -117
q-50 -36 -90 -76q-43 51 -59 94.5t-1 69.5zM267 148q-77 0 -98 37q-15 26 1 69.5t59 94.5q40 -40 90 -76q7 -62 21 -117q-40 -8 -73 -8zM512 -15q-30 0 -59 36t-51 99q53 15 110 40q57 -25 110 -40q-22 -63 -51 -99t-59 -36zM855 185q-21 -37 -98 -37q-33 0 -73 8
q14 55 21 117q50 36 90 76q43 -51 59 -94.5t1 -69.5zM447 385q0 27 19 46t46 19t46 -19t19 -46t-19 -46t-46 -19t-46 19t-19 46z" />
    <glyph glyph-name="uniE656" unicode="&#xe656;" horiz-adv-x="1149" 
d="M694 82l-107 179q55 37 78 17l22 -38q22 -39 45 -78l22 -38zM449 493l-113 189l64 25q90 -142 95 -152q12 -29 -46 -62zM432 484q-11 -22 56 -135q57 -96 83 -98l107 -180q-10 -4 -22.5 -6.5t-41 4t-59.5 26t-76 68t-92 120.5q-46 70 -71 133t-29.5 103.5t1.5 75.5
t14.5 50.5t17.5 26.5zM519 -73q-93 0 -178 36.5t-146.5 98t-98 146t-36.5 178t36.5 178.5t98 146.5t146.5 97.5t178 36t178 -36t146.5 -97.5t98 -146.5t36.5 -178.5t-36.5 -178t-98 -146t-146.5 -98t-178 -36.5zM519.5 789q-109.5 0 -202.5 -54t-147.5 -147t-54.5 -202.5
t54.5 -202.5t147.5 -147t202.5 -54t202.5 54t147 147t54 202.5t-54 202.5t-147 147t-202.5 54z" />
    <glyph glyph-name="uniE657" unicode="&#xe657;" 
d="M286 179l-46 -13q-9 -2 -14 -10.5t-2.5 -18t11 -14.5t17.5 -2l46 12q9 3 14 11.5t2.5 17.5t-11 14t-17.5 3zM342 42l-33 -33q-7 -7 -7 -17t6.5 -16.5t16.5 -6.5t17 6l33 34q7 7 7 16.5t-7 16.5t-16.5 7t-16.5 -7zM792 161l-47 12q-10 2 -19 -3t-11.5 -14t2.5 -17.5
t15 -11.5l47 -12q10 -3 19 2t11.5 14.5t-2.5 18t-15 11.5zM685 36q-7 7 -17 7t-17.5 -7t-7.5 -17t8 -17l34 -33q7 -7 17.5 -7t17.5 7t7 16.5t-7 16.5zM527.5 32q-9.5 0 -16.5 -7t-7 -17v-47q0 -9 7 -16t16.5 -7t16.5 7t7 16v47q0 10 -7 17t-16.5 7zM551 598v1v212
q0 8 -6.5 14.5t-16.5 6.5t-17 -6.5t-7 -14.5v-211q-94 -4 -175 -56t-128.5 -138.5t-47.5 -185.5v-22h188q11 -60 60.5 -100.5t114.5 -40.5t114.5 40.5t60.5 100.5h188v22q0 145 -95.5 254.5t-232.5 123.5zM516 102q-47 0 -83 27t-46 69h258q-10 -42 -46 -69t-83 -27z
M198 243q9 129 101.5 220.5t216.5 91.5t216.5 -91.5t101.5 -220.5h-636z" />
    <glyph glyph-name="uniE658" unicode="&#xe658;" 
d="M383 427h-172q-35 0 -60.5 25t-25.5 61v172q0 35 25.5 60.5t60.5 25.5h172q36 0 61 -25.5t25 -60.5v-172q0 -36 -25 -61t-61 -25zM426 685q0 18 -12.5 30.5t-30.5 12.5h-172q-18 0 -30.5 -12.5t-12.5 -30.5v-172q0 -18 12.5 -30.5t30.5 -12.5h172q18 0 30.5 12.5
t12.5 30.5v172zM383 -3h-172q-35 0 -60.5 25.5t-25.5 60.5v172q0 36 25.5 61t60.5 25h172q36 0 61 -25t25 -61v-172q0 -35 -25 -60.5t-61 -25.5zM426 255q0 18 -12.5 30.5t-30.5 12.5h-172q-18 0 -30.5 -12.5t-12.5 -30.5v-172q0 -18 12.5 -30.5t30.5 -12.5h172
q18 0 30.5 12.5t12.5 30.5v172zM877 147q-9 0 -15 6.5t-6 15.5v86q0 18 -12.5 30.5t-30.5 12.5h-172q-18 0 -30.5 -12.5t-12.5 -30.5v-172q0 -18 12.5 -30.5t30.5 -12.5h86q9 0 15.5 -6t6.5 -15t-6.5 -15.5t-15.5 -6.5h-86q-36 0 -61 25.5t-25 60.5v172q0 36 25 61t61 25
h172q35 0 60.5 -25t25.5 -61v-86q0 -9 -6.5 -15.5t-15.5 -6.5zM813 427h-172q-36 0 -61 25t-25 61v172q0 35 25 60.5t61 25.5h172q35 0 60.5 -25.5t25.5 -60.5v-172q0 -36 -25.5 -61t-60.5 -25zM856 685q0 18 -12.5 30.5t-30.5 12.5h-172q-18 0 -30.5 -12.5t-12.5 -30.5
v-172q0 -18 12.5 -30.5t30.5 -12.5h172q18 0 30.5 12.5t12.5 30.5v172z" />
    <glyph glyph-name="uniE659" unicode="&#xe659;" 
d="M853 192l-170 -171v-149h-150v235l107 213l43 -21l-22 -86l-21 -64l128 86l64 170h43zM704 419v0q-28 -27 -63 -46h-1l-22 -11h-2l-2 -1q-12 -5 -21 -8q-2 0 -4.5 -0.5t-3.5 -1.5q-13 -3 -18 -4q-1 0 -14 -2q-1 -1 -6 -1.5t-7 -0.5q-14 -2 -28 -2h-1q-14 0 -29 2
q-1 0 -3 0.5t-3 0.5q-13 2 -25 4h-1l-2 1q-14 3 -26 8h-1q-14 5 -27 11v0q-75 36 -119 107l-1 1v1q-5 9 -10 17v1v1q-29 58 -29 123q0 90 52 162t135 100q2 1 3 1q18 6 39 10q1 0 3.5 0.5t3.5 0.5q22 3 41 3q16 0 35 -2q2 -1 10 -2q13 -2 25 -5q2 -1 4.5 -1.5t4.5 -0.5
q16 -5 31 -12q1 0 3 -1l2 -1q13 -6 25 -13q4 -3 8 -5q12 -8 23 -16l2 -2q1 -1 2 -1q12 -10 24 -23l3 -3l2 -2q9 -10 17 -21q5 -5 5 -6q11 -15 18 -29v0q33 -61 33 -131q0 -118 -85 -200zM746 602q-1 -1 -15 -31q-11 3 -16 5q7 22 13 39q2 1 3.5 2t3.5 2.5t3 2.5q0 -1 2.5 -3
t3.5 -3l-2 3h3q1 -9 1 -14q1 13 1 14q0 53 -24 102q-83 3 -129 5q0 -3 0.5 -6t1 -7t0.5 -6q-23 -9 -29 -11h-1q-1 -1 -2 -1q2 -2 4.5 -6.5t3.5 -6.5q52 2 75 3q20 -43 30 -65q-1 -5 -4.5 -14t-5.5 -14q-35 16 -45 21q-11 2 -31 5.5t-30 4.5q-11 -35 -19 -58l18 -39
q10 -1 37 -5q20 29 30 43q13 -68 22 -111q16 -3 24 -5q66 63 73 154zM277 619q0 -40 14 -78q13 -11 38.5 -33t37.5 -32q-3 -25 -5 -38q20 -16 45 -29q5 15 15 46t15 47q-3 3 -8.5 10t-8.5 10q5 6 18 22t20 25l-154 45q9 36 13 54q57 9 92 15q12 42 18 62q-40 31 -60 46
q1 9 1 13q-42 -33 -66.5 -81.5t-24.5 -103.5zM384 149l-21 64l-22 86l43 21l107 -213v-235h-150v149l-170 171l-22 213h43l64 -170z" />
    <glyph glyph-name="uniE65A" unicode="&#xe65a;" 
d="M196 387q0 -12 9 -21t21 -9t21 9t9 21t-9 21t-21 9t-21 -9t-9 -21zM196 387zM828 387q0 -7 -5.5 -12t-12.5 -5h-481q-7 0 -12.5 5t-5.5 12t5.5 12t12.5 5h481q7 0 12.5 -5t5.5 -12zM196 612q0 -12 9 -21t21 -9t21 9t9 21t-9 21t-21 9t-21 -9q-9 -8 -9 -21zM196 612z
M828 612q0 -7 -5.5 -12t-12.5 -5h-481q-7 0 -12.5 5t-5.5 12t5.5 12t12.5 5h481q7 0 12.5 -5t5.5 -12zM196 162q0 -13 9 -21.5t21 -8.5t21 8.5t9 21t-9 21t-21 8.5t-21 -8.5t-9 -20.5zM196 162zM828 162q0 -7 -5.5 -12.5t-12.5 -5.5h-481q-7 0 -12.5 5.5t-5.5 12.5t5.5 12
t12.5 5h481q7 0 12.5 -5t5.5 -12z" />
    <glyph glyph-name="uniE65B" unicode="&#xe65b;" 
d="M450 802q-113 0 -209 -56t-152 -152.5t-56 -210t56 -209.5t152 -152t209 -56q88 0 167 35q-29 22 -53 50q-10 -3 -18 -5q6 5 12 12q-15 20 -26 42q0 -1 -1.5 -3t-2.5 -3q-25 -29 -55 -48v127h34q-5 24 -6 47h-28v141h61q12 23 31 46h-92v141h119q13 -46 18 -96
q22 16 44 28q-5 35 -13 68h121q8 -16 16 -38h5q35 0 67 -8q-39 132 -149.5 216t-250.5 84zM426 723v-128h-102q21 49 52 84q24 27 50 44zM473 723q27 -17 51 -44q30 -34 52 -83h-103v127zM351 722q-5 -5 -11 -12q-41 -47 -67 -114h-105q70 93 183 126zM549 722
q113 -33 183 -126h-106q-25 67 -67 114q-6 7 -10 12zM138 548h121q-17 -63 -20 -141h-141q5 76 40 141zM307 548h119v-141h-140q3 79 21 141zM928 542q-14 0 -42 -39.5t-49 -78.5l-21 -40l-279 -59l-5 -7l-11 -17q-8 -12 -8.5 -16t2.5 -6q209 29 238 -13l3 -7l-37 -118
q-24 3 -101 -9q-7 -15 -7 -23.5t4 -12.5l3 -3q6 1 14 2.5t31 2.5t33 -4q1 -29 4.5 -30.5t26.5 15.5q9 -8 21 -23.5t20 -26.5l7 -11q1 1 4.5 -1t11.5 4.5t15 20.5q-26 61 -56 84l69 103l6 4q27 5 93 -94q24 -34 51 -80q2 -4 6 2t8 18t5.5 18t2.5 9l-112 248l37 89
q33 90 15 98q-2 1 -3 1zM98 361h140q2 -75 19 -141h-119q-35 66 -40 141zM286 361h140v-141h-121q-18 62 -19 141zM168 173h104q24 -62 64 -109q8 -9 17 -18q-114 32 -185 127zM323 173h103v-127q-29 19 -54 48q-29 34 -49 79z" />
    <glyph glyph-name="uniE65C" unicode="&#xe65c;" 
d="M151 713q-5 0 -8.5 -3.5t-3.5 -8.5v-128h-81q-5 0 -8.5 -3.5t-3.5 -8.5v-46q0 -5 3.5 -8.5t8.5 -3.5h9v-70h-9q-5 0 -8.5 -3.5t-3.5 -7.5v-47q0 -5 3.5 -8t8.5 -3h233q4 0 8 3t4 8v47q0 4 -4 7.5t-8 3.5h-73v70q-1 1 2.5 3t9.5 6t12 10t10 16.5t4 22.5q0 5 -3.5 8.5
t-8.5 3.5h-81v128q0 5 -3.5 8.5t-8.5 3.5zM473 617q-8 -1 -7 -7v-30q0 -7 8 -7h70q9 0 9 7v30q0 7 -9 7h-70h-1zM586 617q-7 -1 -7 -7v-30q0 -7 9 -7h70q9 0 9 7v30q0 7 -9 7h-70h-2zM360 547q-8 -1 -8 -7v-29q0 -8 9 -8h70q8 0 8 8v29q0 7 -8 7h-70h-1zM473 547
q-7 -1 -7 -7v-29q0 -8 8 -8h70q9 0 9 8v29q0 7 -9 7h-70h-1zM587 547q-8 -1 -8 -7v-29q0 -8 9 -8h70q9 0 9 8v29q0 7 -9 7h-70h-1zM153 508v0h1h29q7 0 7 -7v-59q0 -7 -7 -7h-29q-7 0 -7 7v59q0 6 6 7zM359 477q-7 -1 -7 -7v-29q0 -8 9 -8h70q8 0 8 8v29q0 7 -8 7h-70h-2z
M473 477q-8 -1 -7 -7v-29q0 -8 8 -8h70q9 0 9 8v29q0 7 -9 7h-70h-1zM586 477q-7 -1 -7 -7v-29q0 -8 9 -8h70q9 0 9 8v29q0 7 -9 7h-70h-2zM700 477q-7 -1 -7 -7v-29q0 -8 9 -8h69q9 0 9 8v29q0 7 -9 7h-69h-2zM360 407q-8 0 -8 -7v-29q0 -7 9 -7h70q8 0 8 7v29q0 7 -8 7
h-70h-1zM473 407q-7 0 -7 -7v-29q0 -7 8 -7h70q9 0 9 7v29q0 7 -9 7h-70h-1zM587 407q-8 -1 -8 -7v-29q0 -7 9 -7h70q9 0 9 7v29q0 7 -9 7h-70h-1zM701 407q-8 0 -8 -7v-29q0 -7 8 -7h70q9 0 9 7v29q0 7 -9 7h-70v0zM850 401q-8 0 -15 -6.5t-7 -15.5l-23 -66h-737
q-12 0 -18 -10q-7 -10 -1 -21l87 -115q6 -13 20 -13h37q21 9 41 16q52 18 130 31t135 10q74 -4 167 -41q26 -11 40 -15h141q12 3 25 8q2 3 3 6l87 203q4 11 -2 20q-7 9 -18 9h-92zM497 182q-107 5 -233.5 -33.5t-193.5 -91.5q142 30 212 41.5t115 13t97 -1.5
q49 -3 144.5 -30t142.5 -25q54 4 118.5 36.5t78.5 74.5q-69 -27 -108.5 -38t-89.5 -13q-55 2 -147.5 33t-135.5 34z" />
    <glyph glyph-name="uniE65D" unicode="&#xe65d;" 
d="M57 705h510v-419h-510v419zM13 749v-508h598v508h-598zM329 150.5q0 9.5 6.5 16t15.5 6.5h227q10 0 16 -6.5t6 -16t-6.5 -16t-15.5 -6.5h-227q-9 0 -15.5 6.5t-6.5 16zM174 155q25 0 43 -18t18 -43t-18 -43t-43 -18t-43 18t-18 43t18 43t43 18zM174 199
q-44 0 -74.5 -30.5t-30.5 -74.5t30.5 -75t74.5 -31t74.5 31t30.5 74.5t-30.5 74.5t-74.5 31zM709 541h157l102 -199v-189h-38q-19 59 -69 96t-114 37q-19 0 -38 -3v258zM665 585v-367q38 24 82 24q57 0 99.5 -38.5t48.5 -94.5h117v243l-119 233h-228zM747 155q25 0 43 -18
t18 -43t-17.5 -43t-43 -18t-43.5 18t-18 43t18 43t43 18zM747 199q-43 0 -74 -30.5t-31 -74.5t31 -75t74.5 -31t74.5 31t31 74.5t-31 74.5t-75 31z" />
    <glyph glyph-name="uniE65E" unicode="&#xe65e;" 
d="M27 271h400q12 0 19.5 8.5t7.5 19.5q0 12 -8 19.5t-19 7.5h-400q-10 2 -18.5 -5.5t-8.5 -18.5q0 -12 8.5 -21.5t18.5 -9.5zM27 442h400q12 0 19.5 8t7.5 19q0 13 -8 20.5t-19 7.5h-400q-10 2 -18.5 -6t-8.5 -18q0 -13 8.5 -22t18.5 -9zM85 613h400q12 0 19.5 8t7.5 19
q0 12 -8 19.5t-19 7.5h-400q-12 3 -19.5 -4.5t-7.5 -19.5q0 -13 7.5 -21.5t19.5 -8.5zM1021 343l-226 317q-7 7 -20 7h-120v116q0 13 -8 20.5t-19 7.5h-457q-13 0 -20.5 -8.5t-7.5 -19t7.5 -19t20.5 -8.5h426v-85v-369q0 -12 8.5 -19.5t19.5 -7.5h341v-198h-61
q-11 49 -50 80.5t-90 31.5t-90.5 -31.5t-49.5 -80.5h-232q-11 49 -50 80.5t-90 31.5t-90.5 -31.5t-49.5 -80.5h-86q-12 0 -19.5 -8.5t-7.5 -19.5q0 -12 8 -19.5t19 -7.5h89q10 -49 49.5 -80.5t90.5 -31.5t90.5 31.5t49.5 80.5h232q10 -49 49.5 -80.5t90.5 -31.5t90.5 31.5
t49.5 80.5h89q12 0 19.5 8.5t7.5 18.5v284q0 2 -1.5 5t-1.5 5zM256 -39q-36 0 -60.5 24.5t-24.5 60.5t24.5 60.5t60.5 24.5t60.5 -24.5t24.5 -60.5t-24.5 -60.5t-60.5 -24.5zM768 -39q-36 0 -60.5 24.5t-24.5 60.5t24.5 60.5t60.5 24.5t60.5 -24.5t24.5 -60.5t-24.5 -60.5
t-60.5 -24.5zM761 613l202 -284h-308v284h106z" />
    <glyph glyph-name="uniE65F" unicode="&#xe65f;" 
d="M41 -85h942v-53h-942v53zM37 159l118 74l219 -108l241 352l245 -183l119 5v-32l-133 -7l-222 164l-239 -346l-227 113l-121 -74v42zM867 345l55 2v183q0 12 -8.5 20.5t-20.5 8.5h-86q-12 0 -20.5 -8.5t-8.5 -20.5v-120zM833 208l-55 40v-284h144v248zM604 540l86 -64v230
q0 12 -8.5 20.5t-20.5 8.5h-85q-12 0 -20.5 -8.5t-8.5 -20.5v-249zM628 359l-81 -118v-277h143v349zM393 17l-75 37v-90h143v153zM361 184l100 147v19q0 12 -8.5 20.5t-20.5 8.5h-85q-12 0 -20.5 -8.5t-8.5 -20.5v-145zM150 287l81 -39v206q0 12 -8.5 20.5t-20.5 8.5h-85
q-12 0 -20.5 -8.5t-8.5 -20.5v-206zM157 134l-69 -42v-123v-5h142q1 3 1 5v128z" />
    <glyph glyph-name="uniE660" unicode="&#xe660;" 
d="M509.5 471q-93.5 0 -173 -65t-126 -177t-46.5 -244q0 -89 11 -120l5 -13h659l5 13q11 31 11 119q0 132 -46.5 244.5t-126 177.5t-173 65zM811 -111h-603q-7 38 -7 96q0 121 41.5 225t112.5 164t154.5 60t154.5 -60.5t112 -164t41 -225.5q0 -58 -6 -95zM582 505l108 206
h-161l-25 -28l-58 65h-113l92 -243h157zM429 711l75 -84l41 46h83l-69 -130h-109l-63 168h42zM589.5 142q-22.5 21 -69.5 33v111q17 -1 31.5 -10.5t29.5 -29.5l19 11q-13 23 -32.5 35t-47.5 15v32h-19v-32q-41 -4 -63.5 -24t-22.5 -51q0 -30 20.5 -48.5t65.5 -29.5v-125
q-24 3 -41.5 15.5t-30.5 35.5l-19 -16q16 -26 39 -40t52 -16v-37h19v37q44 4 68 25.5t24 57.5q0 30 -22.5 51zM501 180q-33 8 -48 21t-15 33q0 23 17 38q17 14 46 15v-107zM570 47q-18 -16 -50 -19v119q37 -10 52.5 -24t15.5 -36q0 -24 -18 -40z" />
    <glyph glyph-name="uniE661" unicode="&#xe661;" 
d="M910.5 380q-9.5 0 -16.5 6.5t-7 15.5v170l-318 -355q-2 -18 -15 -30t-31 -12q-15 0 -27.5 9.5t-16.5 24.5l-125 127q-7 -2 -12.5 -2t-12.5 2l-153 -154q-7 -7 -16.5 -7t-16.5 7q-6 6 -6 14v-180q0 -19 13 -32.5t32 -13.5h614q19 0 32.5 13.5t13.5 32.5v159v45v23
q0 10 6.5 16.5t16 6.5t16 -6.5t6.5 -16.5v-23v-45v-182q0 -28 -20 -48t-48 -20h-660q-28 0 -48 20t-20 48v614q0 28 20 48t48 20h319h45h23q10 0 16.5 -6.5t6.5 -16t-6.5 -16t-16.5 -6.5h-23h-45h-296q-19 0 -32 -13.5t-13 -32.5v-386q0 9 6 15l154 156q-1 6 -1 11
q0 18 13 31.5t32 13.5t32.5 -13.5t13.5 -31.5q0 -5 -2 -11l111 -112q13 9 27 9q12 0 23 -6l312 347h-175q-10 0 -16.5 7t-6.5 16t6.5 16t16.5 7h227q10 0 16.5 -7t6.5 -16v-228q0 -9 -6.5 -15.5t-16 -6.5z" />
    <glyph glyph-name="uniE662" unicode="&#xe662;" 
d="M858 358h-736q-15 0 -26.5 11t-11.5 27t11.5 27t26.5 11h736q16 0 27 -11t11 -27t-11 -27t-27 -11zM636 69q-14 0 -25 11q-12 10 -12.5 26t10.5 27l241 257l-241 257q-11 11 -10.5 27t12 26.5t27 10t26.5 -11.5l265 -283q11 -11 11 -26t-11 -26l-265 -283
q-11 -12 -28 -12z" />
    <glyph glyph-name="uniE663" unicode="&#xe663;" horiz-adv-x="1025" 
d="M489 871h-6l-122 -996l131 -3zM273 80l-9 60l-32 -49l-65 2l41 -44l-26 -57l58 30l44 -42l-3 63l56 25zM386 451l-65 -21l-31 58l-20 -83l-70 -36l55 -13l-13 -84l55 70l64 -20l-23 66zM84 311l-37 -49l-47 -8l29 -32l-27 -54l48 38l33 -33l3 52l41 34l-44 2zM171 482
l22 27l-28 -7l-14 26l-13 -40l-36 -17l24 -6l-6 -36l29 33l29 -11zM297 623l14 -8l6 20l21 17l-17 2v16l-17 -21l-24 -3l8 -16l-14 -21zM893 770q-4 3 -12 7t-36 12.5t-59.5 13t-82.5 2t-105 -15.5q5 1 14 1.5t36 -1t52.5 -5.5t58.5 -15.5t60 -29t51 -47t37 -68.5
q2 -8 4 -21.5t1.5 -54.5t-9 -80t-34 -90t-66.5 -92q-12 -14 -31.5 -34.5t-67 -60.5t-78.5 -53l-95 754l-3 4q-4 -1 -4 -11v-1002q115 40 125 60l-15 125q7 3 18.5 9t45.5 28t66 46t73.5 61.5t74 77.5t61 92.5t41.5 105.5q1 0 5.5 20.5t4 53.5t-9 70t-39.5 75t-82 63z" />
    <glyph glyph-name="uniE664" unicode="&#xe664;" 
d="M875 364l-355 -358l-25 25l355 358l-12 12l-355 -358l-25 25l355 358l-24 24l-373 -376l-50 -155l160 45l373 376zM416 -36l21 65l43 -44zM949 501q-26 26 -54 26q-17 0 -33 -8.5t-23 -17.5l-8 -9l-6 -6l110 -110l6 6l3 2l5.5 5.5t8 8.5t8 12t6.5 14.5t3.5 16.5
t-1.5 18.5t-8 20t-17 21.5zM553 851v-169h162zM398 76v0l317 325v255h-194v195h-477v-932h305zM274 413v-162h-50v378h166q43 0 71 -8.5t45 -36t17 -61.5q0 -39 -22.5 -65.5t-61.5 -34.5v-1q39 -12 60 -68l38 -103h-54l-35 101q-10 27 -32 44t-51 17h-91zM472 523
q0 64 -80 64h-118v-130h110q47 0 67.5 15t20.5 51z" />
    <glyph glyph-name="uniE665" unicode="&#xe665;" 
d="M804 836h165v-921h-165v921v0zM768 -85q0 -17 11 -28t28 -11h165q17 0 28 11t11 28v921q0 17 -6 23.5t-23 6.5h-184q-17 0 -23.5 -6.5t-6.5 -23.5v-921v0zM513 836h165v-921h-165v921v0zM474 -85q0 -17 11 -28t28 -11h165q17 0 28 11t11 28v921q0 17 -6 23.5t-23 6.5
h-185q-16 0 -22.5 -6.5t-6.5 -23.5v-921v0zM547 574q0 -19 29 -19h39q29 0 29 19.5t-29 19.5h-39q-29 0 -29 -20v0zM547 477q0 -19 29 -19h39q29 0 29 19.5t-29 19.5h-39q-29 0 -29 -20v0zM547 385q0 -19 29 -19h39q29 0 29 19.5t-29 19.5h-39q-29 0 -29 -20v0zM547 671
q0 -19 29 -19h39q29 0 29 19.5t-29 19.5h-39q-29 0 -29 -20v0zM301 847l159 -43l-244 -889l-159 44l244 888v0zM20 -31q-5 -17 2.5 -30t24.5 -18l159 -43q16 -5 29.5 2.5t18.5 24.5l243 889q5 16 0.5 23.5t-20.5 11.5l-178 49q-16 5 -23.5 0.5t-11.5 -20.5l-244 -889v0z
M264 586q-5 -19 23 -27l38 -10q28 -8 33 11t-23 27l-37 10q-28 8 -34 -11v0zM239 492q-5 -18 23 -26l37 -10q28 -8 33 10.5t-23 26.5l-37 10q-28 8 -33 -11v0zM214 403q-5 -18 23 -26l38 -10q28 -8 33 10.5t-23 26.5l-37 10q-29 8 -34 -11v0zM290 679q-5 -18 23 -26l37 -10
q28 -8 33.5 10.5t-22.5 26.5l-38 10q-28 8 -33 -11v0zM838 574q0 -19 29 -19h39q29 0 29 19.5t-29 19.5h-39q-29 0 -29 -20v0zM838 477q0 -19 29 -19h39q29 0 29 19.5t-29 19.5h-39q-29 0 -29 -20v0zM838 385q0 -19 29 -19h39q29 0 29 19.5t-29 19.5h-39q-29 0 -29 -20v0z
M838 671q0 -19 29 -19h39q29 0 29 19.5t-29 19.5h-39q-29 0 -29 -20v0zM838 671z" />
    <glyph glyph-name="uniE666" unicode="&#xe666;" 
d="M847 830h-671q-34 0 -57.5 -23.5t-23.5 -57.5v-732q0 -33 23.5 -57t57.5 -24h671q33 0 57 24t24 57v732q0 34 -24 57.5t-57 23.5zM623 790h81v-143l-40 41l-41 -41v143zM257 -23h-81q-17 0 -29 11.5t-12 28.5v732q0 17 12 29t29 12h81v-813zM887 17q0 -17 -12 -28.5
t-28 -11.5h-549v813h284v-244l82 81l81 -81v244h102q16 0 28 -12t12 -29v-732z" />
    <glyph glyph-name="uniE667" unicode="&#xe667;" 
d="M84 568l415 -226q6 -4 13 -4t14 4l419 226q15 8 15 25t-15 25l-416 210q-12 7 -25 0l-420 -211q-15 -7 -15 -24t15 -25zM516 778l362 -186l-366 -200l-361 200zM940 412l-83 42l-54 -32l70 -36l-365 -200l-362 200l75 37l-54 33l-87 -44q-16 -8 -16 -25t15 -25l415 -226
q6 -3 13 -3t14 3l419 226q15 8 15 25t-15 25zM940 216l-79 38l-11 -32l23 -32l-365 -200l-362 200l27 31l-11 33l-82 -38q-16 -8 -16 -25t15 -25l415 -226q6 -4 13 -4t14 4l419 226q15 8 15 25t-15 25z" />
    <glyph glyph-name="uniE668" unicode="&#xe668;" 
d="M382 375v-544q0 -12 -9.5 -21t-23 -9t-23 9t-9.5 21v544q-56 10 -92.5 51.5t-36.5 95.5v210q0 13 9.5 21.5t23 8.5t23 -8.5t9.5 -21.5v-203q0 -31 18 -56t46 -35v294q0 13 9.5 21.5t23 8.5t23 -8.5t9.5 -21.5v-294q29 10 47 35t18 56v203q0 13 9.5 21.5t23 8.5t23 -8.5
t9.5 -21.5v-210q0 -54 -37 -95.5t-93 -51.5zM663 222v-391q0 -12 -8.5 -21t-20.5 -9t-20.5 9t-8.5 21v901q0 13 8.5 21.5t20.5 8.5h29q7 -7 18.5 -22t41.5 -66t53 -109t42 -151t19 -192h-174zM663 282h116q-2 53 -14.5 112.5t-29 107t-33 87t-28.5 61.5l-11 22v-390z" />
    <glyph glyph-name="uniE669" unicode="&#xe669;" 
d="M789 737h-554q-66 0 -113 -47t-47 -113v-554q0 -67 47 -113.5t113 -46.5h554q67 0 113.5 46.5t46.5 113.5v554q0 67 -47 113.5t-113 46.5zM885 23q0 -40 -28 -68t-68 -28h-554q-40 0 -68 28t-28 68v554q0 40 28 68t68 28h554q40 0 68 -28t28 -68v-554zM702 573h-82
q-98 -174 -102 -186l-104 186h-87l122 -215h-128v-62h155v-84h-155v-62h155v-123h77v123h150v62h-150v84h150v62h-123z" />
    <glyph glyph-name="uniE66A" unicode="&#xe66a;" 
d="M991 26h-958q-13 -6 -13 -20q0 -9 6.5 -15t15.5 -6h940q9 0 15.5 6t6.5 15q0 14 -13 20zM397 502q-88 -16 -152 -90q-32 -35 -47 -70q-3 -8 0 -16t11 -12q4 -2 9 -2q14 0 19 13q2 5 6.5 13t19 28.5t32.5 37.5t47.5 33.5t62.5 22.5q8 1 13 8.5t3.5 16t-8.5 13.5t-16 4z
M41 189h942q9 0 14.5 6t5.5 14.5t-5.5 14.5t-14.5 6h-20q0 153 -92.5 273t-235.5 161q-2 49 -37.5 84t-85.5 35t-85.5 -35t-37.5 -84q-143 -41 -235.5 -161t-92.5 -273h-20q-9 0 -15 -6t-6 -14.5t6 -14.5t15 -6zM512 742q30 0 53 -19.5t28 -49.5q-42 8 -81 8t-81 -8
q5 30 28 49.5t53 19.5zM512 640q111 0 205.5 -55t149.5 -149t55 -206h-820q0 112 55 206t149.5 149t205.5 55z" />
    <glyph glyph-name="uniE66B" unicode="&#xe66b;" 
d="M887 731q-76 81 -174 81q-44 0 -81.5 -15t-60.5 -35q-20 -17 -58 -53q-27 27 -39 37q-24 21 -61.5 36t-83 20t-96 -12.5t-91.5 -59.5q-47 -48 -64 -102q-15 -46 -9 -94q6 -56 41 -113q1 -2 2 -3q19 -33 82 -88l-17 -17q-20 -20 -20 -47.5t19.5 -46.5t47.5 -19q7 0 14 1
v-9q0 -27 19.5 -46.5t46.5 -19.5q6 0 12 1v-7q0 -27 19.5 -46.5t46.5 -19.5q7 0 13 1q-1 -4 -1 -7q0 -28 19.5 -47t47.5 -19q18 0 34 9l15 -14q18 -18 45 -18q30 0 53 22q27 27 22 63q4 -1 8 -1h4q29 2 50 23t23 49q0 6 -1 13q4 -1 8 -1h4q28 2 49 23q28 27 23 63
q5 -1 10 -1q30 0 53 23l1 1q20 21 20.5 50t-18.5 48l-12 13q48 51 62 69q17 20 30 54t15 73q6 104 -72 188zM249 241q-11 -11 -25.5 -11t-25 10.5t-10.5 25.5t10 25l94 94q10 10 24.5 10t25 -10t10.5 -25t-10 -25zM329 167q-10 -10 -25 -10t-25.5 10.5t-10.5 25t11 25.5
l93 94q10 10 25 10t25.5 -10.5t10.5 -25t-10 -25.5zM407 95q-10 -10 -25 -10t-25 10t-10.5 25t10.5 25l93 94q11 11 25.5 11t25 -10.5t10.5 -25t-10 -25.5zM486 23q-11 -11 -25.5 -11t-25 10.5t-10.5 25.5t10 25l94 94q10 10 25 10t25 -10t10 -25t-10 -25zM586.5 2.5
q-12.5 -12.5 -28.5 -13.5t-27 9l-13 14l59 59l14 -14q10 -10 9 -26t-13.5 -28.5zM840 257q-13 -13 -29 -14t-27 9l-125 119l-12 -13l-9 -10l121 -121q10 -11 8.5 -27t-13.5 -28q-13 -13 -30 -14q-15 -1 -25 9l-124 124l-22 -21l1 -1l121 -126q10 -10 9 -26t-14 -29t-29 -14
t-26 9l-13 13q18 20 18 47t-19.5 46t-46.5 19q-7 0 -13 -1q4 32 -19 54q-19 19 -47 19q-6 0 -12 -1v8q0 27 -19 46.5t-47 19.5q-7 0 -15 -2q1 4 1 9q0 28 -19.5 47t-46.5 19q-28 0 -47 -20l-59 -59l4 5q-60 52 -77 81q0 1 -2 4q-91 150 28 272q67 69 163 63q40 -3 73.5 -17
t53.5 -32q11 -10 38 -36q-84 -82 -190 -192l-10 -11l10 -11q3 -3 8.5 -8t21 -17t31.5 -21t38 -16.5t43 -7.5q4 0 8 1q10 0 23 2t42.5 15t51.5 34l73 68l104 -109l96 -101q10 -11 9.5 -27.5t-11.5 -28.5zM929 545q-4 -68 -38 -110q-14 -16 -60 -66l-188 196l-95 -88
q-19 -18 -44.5 -29t-36 -12.5t-16.5 -1.5h-1h-6q-51 0 -109 51q192 199 256 254q19 17 51.5 29.5t70.5 12.5q85 0 152 -71q69 -74 64 -165z" />
    <glyph glyph-name="uniE66C" unicode="&#xe66c;" 
d="M958 532q0 -85 -55 -134.5t-144 -58.5q-59 -136 -152 -189l-23 -182h5q35 0 62 -22t34 -56h21q8 0 13.5 -5.5t5.5 -13.5t-5.5 -14t-13.5 -6h-389q-8 0 -13.5 6t-5.5 14t5.5 13.5t13.5 5.5h21q7 34 34 56t62 22h5l-23 182q-93 53 -152 189q-89 9 -144.5 58.5t-55.5 134.5
v31q0 26 -0.5 36.5t3.5 23.5t7 16t16 7t23.5 3.5t36.5 -0.5h31h20q0 1 -0.5 8t-0.5 11q0 22 2 51q-2 4 -2 8t3 9q0 2 0.5 5t0.5 5h16h23h537h23h16q0 -2 0.5 -5t0.5 -5q3 -5 3 -9t-2 -8q2 -29 2 -51q0 -4 -0.5 -11t-0.5 -8h20h30q27 0 37.5 0.5t23.5 -3.5t15.5 -7t6.5 -16
t4 -23.5t-1 -36.5v-31zM434 -71q-19 0 -34 -10.5t-21 -28.5h265q-6 18 -21 28.5t-34 10.5h-155zM550 124h-77l13 -156h51zM182 610h-31h-21q-17 0 -26 -1q-1 -10 0 -46v-31q0 -65 39 -103t104 -49q-37 105 -45 230h-20zM783 707h-543q-1 -21 -1 -39q0 -134 37 -251
t100 -185.5t135.5 -68.5t135.5 68.5t100 185.5t37 251q0 18 -1 39zM918 609q-8 1 -26 1h-20h-31h-20q-8 -125 -45 -230q65 11 104 49.5t39 102.5v31q0 36 -1 46z" />
    <glyph glyph-name="uniE66D" unicode="&#xe66d;" 
d="M561 367q14 14 14 33.5t-14 33.5q-8 9 -66 50t-112 78l-54 38q146 -214 165 -233q14 -14 33.5 -14t33.5 14zM547 777v1h-39v-179q0 -8 5.5 -14t14 -6t14 6t5.5 14v138q133 -8 225.5 -105t92.5 -231q0 -92 -45 -169.5t-123 -123t-169.5 -45.5t-169 45.5t-123 123
t-45.5 169.5q0 73 30.5 139.5t85.5 114.5l-28 28q-60 -53 -93.5 -126t-33.5 -156q0 -103 50 -189.5t137 -137t189.5 -50.5t189.5 50.5t137.5 137t50.5 189.5q0 99 -47.5 183.5t-129.5 136t-181 56.5z" />
    <glyph glyph-name="uniE66E" unicode="&#xe66e;" 
d="M485 417q-1 1 -2 1l-1 1l-315 315q-13 14 -31.5 14t-31.5 -13.5t-13 -32t13 -31.5l285 -286l-285 -286q-13 -13 -13 -31.5t13 -31.5t31.5 -13t31.5 13l315 315l1 1q1 0 2 1q13 13 13 32t-13 32zM936 417q0 1 -1 1.5t-2 0.5l-314 315q-14 14 -32.5 14t-31.5 -13.5t-13 -32
t13 -31.5l285 -286l-285 -286q-13 -13 -13 -31.5t13 -31.5t31.5 -13t32.5 13l314 315q1 0 2 0.5t1 1.5q13 13 13 32t-13 32z" />
    <glyph glyph-name="uniE670" unicode="&#xe670;" 
d="M189 743v-886l323 306l323 -306v886h-646zM189 743z" />
    <glyph glyph-name="uniE672" unicode="&#xe672;" 
d="M810 614h-30q22 35 19 66q-3 35 -37 57q-36 24 -87 11q-42 -11 -87 -44.5t-77 -76.5q-31 43 -76.5 76.5t-87.5 44.5q-51 13 -87 -11q-34 -22 -37 -57q-3 -31 19 -66h-30q-29 0 -49 -20t-20 -49v-92q0 -24 14.5 -42t36.5 -24q-5 -13 -5 -26v-276q0 -29 20.5 -49t48.5 -20
h253v0h253q29 0 49.5 20t20.5 49v276q0 13 -6 26q23 6 37.5 24t14.5 42v92q0 29 -20.5 49t-49.5 20zM686 703q32 8 51 -4q15 -10 16 -23q2 -15 -9 -33t-22 -29h-163q27 32 62 57t65 32zM269 676q1 13 17 23q19 12 50 4q30 -8 65 -32.5t62 -56.5h-162q-11 11 -22 29t-10 33z
M189 545q0 10 6.5 16.5t16.5 6.5h276v-138h-230h-46q-10 0 -16.5 6.5t-6.5 16.5v92zM235 85v276q0 10 6.5 16.5t16.5 6.5h230v-322h-230q-10 0 -16.5 6.5t-6.5 16.5zM787 85q0 -10 -6.5 -16.5t-16.5 -6.5h-230v322h230q10 0 16.5 -6.5t6.5 -16.5v-276zM833 453
q0 -10 -6.5 -16.5t-16.5 -6.5h-46h-230v138h276q10 0 16.5 -6.5t6.5 -16.5v-92z" />
  </font>
</defs>
</svg>
